<?xml version="1.0" standalone="no"?>
<!DOCTYPE svg PUBLIC "-//W3C//DTD SVG 1.1//EN" "http://www.w3.org/Graphics/SVG/1.1/DTD/svg11.dtd" >
<svg xmlns="http://www.w3.org/2000/svg">
<metadata></metadata>
<defs>
<font id="focusfont_ipadregular" horiz-adv-x="1229" >
<font-face units-per-em="2048" ascent="1638" descent="-410" />
<missing-glyph horiz-adv-x="500" />
<glyph />
<glyph />
<glyph unicode="&#xd;" />
<glyph unicode=" " />
<glyph unicode="!" d="M491 73q0 45 31 75t73 30h39q43 0 73.5 -30.5t30.5 -73.5q0 -44 -31 -74t-73 -30h-39q-43 0 -73.5 30.5t-30.5 72.5zM533 1205q0 34 23.5 57t58.5 23t58 -23t23 -58q0 -10 -1 -34l-38 -678q-2 -32 -13.5 -45t-28.5 -13q-18 0 -29.5 13t-13.5 45l-37 678q-2 24 -2 35z" />
<glyph unicode="&#x22;" d="M266 1234h266l-70 -486q-6 -38 -22 -53.5t-41 -15.5t-41 15.5t-22 53.5zM695 1234h266l-70 -486q-6 -38 -22 -53.5t-40 -15.5q-26 0 -42 15.5t-21 53.5z" />
<glyph unicode="#" d="M187 434q0 19 13 30.5t43 11.5h181l18 264h-156q-31 0 -44 11.5t-13 30.5t13 30.5t44 11.5h162l33 468q2 29 14 41.5t28 12.5l18 -4q25 -16 25 -40l-1 -16l-32 -462h189l33 468q2 29 13.5 41.5t28.5 12.5l17 -4q26 -16 26 -40l-1 -16l-33 -462h179q30 0 43 -11.5 t13 -30.5t-13 -30.5t-43 -11.5h-185l-18 -264h161q30 0 43 -11.5t13 -30.5t-13 -30.5t-43 -11.5h-167l-33 -468q-2 -30 -13.5 -42t-28.5 -12l-17 4q-25 15 -25 41v15l33 462h-190l-32 -468q-2 -30 -14 -42t-28 -12l-18 4q-25 15 -25 41l1 15l32 462h-175q-30 0 -43 11.5 t-13 30.5zM508 476h190l18 264h-189z" />
<glyph unicode="$" d="M228 191v164q0 30 11.5 43.5t30.5 13.5q18 0 31 -13q9 -9 11 -40q6 -53 85.5 -108.5t215.5 -55.5q141 0 222 67t81 156q0 59 -30 101t-94 69q-42 17 -176 42q-194 38 -269 98q-76 60 -76 176q0 108 82 193t218 101v106q0 31 11.5 44t30.5 13t30.5 -13t11.5 -44v-106 q68 -6 112 -21.5t104 -55.5q1 25 13 37t29 12q19 0 31 -13t12 -43v-125q0 -30 -12 -43t-31 -13q-16 0 -27 10.5t-15 35.5q-6 47 -62 85q-82 54 -193 54q-113 0 -186.5 -66t-73.5 -149t65 -127q49 -34 206.5 -63.5t213.5 -55.5q80 -35 119.5 -95t39.5 -145q0 -114 -89 -200.5 t-256 -103.5v-247q0 -31 -11.5 -44t-30.5 -13t-30.5 13t-11.5 44v247q-154 10 -259 100q0 -44 -3.5 -53.5t-14.5 -17t-24 -7.5q-18 0 -30 13t-12 43z" />
<glyph unicode="%" d="M187 498q0 10 7 20q5 6 23 12l778 253q14 4 22 4q10 0 18.5 -9t8.5 -21q0 -10 -7 -20q-5 -6 -23 -12l-778 -253q-14 -4 -21 -4q-11 0 -19.5 9t-8.5 21zM230 1016q0 108 75 183.5t181 75.5t181 -75.5t75 -183.5t-75.5 -184t-180.5 -76q-106 0 -181 76t-75 184zM290 1016 q0 -83 57.5 -141t138.5 -58t138.5 58t57.5 141t-57.5 141t-138.5 58t-138.5 -58t-57.5 -141zM488 235q0 108 75 184t181 76t181.5 -76t75.5 -184t-75.5 -183.5t-181.5 -75.5q-105 0 -180.5 76t-75.5 183zM548 235q0 -82 57.5 -140.5t138.5 -58.5t138.5 58t57.5 141 q0 84 -57.5 141.5t-138.5 57.5t-138.5 -58t-57.5 -141z" />
<glyph unicode="&#x26;" d="M254 294q0 106 61.5 188t169.5 114q-74 119 -88.5 156.5t-14.5 77.5q0 99 75 173.5t180 74.5q34 0 68 -10t68 -31q43 22 53 22q17 0 29.5 -12.5t12.5 -30.5q0 -12 -7 -22t-28 -21l-65 -35q-31 28 -63.5 41.5t-66.5 13.5q-69 0 -120.5 -51t-51.5 -114q0 -65 90 -208 l232 -369q61 115 96 266h82q30 0 43 -12t13 -30q0 -13 -7.5 -24t-17.5 -15t-49 -4q-48 -169 -110 -262l57 -86h71q30 0 43 -11.5t13 -30.5q0 -18 -13 -30t-43 -12h-114l-64 99q-90 -132 -232 -132q-120 0 -211 95t-91 232zM338 294q0 -101 66.5 -172t149.5 -71 q112 0 185 126l-218 345q-84 -20 -133.5 -81.5t-49.5 -146.5z" />
<glyph unicode="'" d="M481 1255h266l-70 -525q-6 -42 -22.5 -58.5t-40.5 -16.5q-25 0 -41 16.5t-22 58.5z" />
<glyph unicode="(" d="M605 498q0 115 30 244t115 298t124 204q12 11 26 11q18 0 30.5 -12t12.5 -29q0 -10 -7 -22q-110 -202 -157 -366t-47 -328q0 -165 47 -329t157 -365q7 -12 7 -22q0 -17 -12.5 -29.5t-30.5 -12.5q-14 0 -26 11q-37 34 -121 199t-116 292t-32 256z" />
<glyph unicode=")" d="M301 -218q0 10 7 22q110 201 157 365t47 328q0 165 -47 329t-157 366q-7 12 -7 22q0 17 12.5 29t30.5 12q14 0 26 -11q37 -34 121 -199t116 -292t32 -256q0 -115 -30 -243.5t-115 -298t-124 -203.5q-12 -12 -26 -12q-18 0 -30.5 12.5t-12.5 29.5z" />
<glyph unicode="*" d="M226 964q0 17 12 29.5t27 12.5q11 0 30 -6l273 -89v287q0 31 12 44t31 13q18 0 30 -13t12 -44v-287l273 89q19 6 29 6q16 0 28 -12.5t12 -29.5q0 -15 -8.5 -26t-34.5 -19l-273 -89l169 -232q16 -23 16 -36q0 -18 -12.5 -30.5t-29.5 -12.5q-22 0 -43 29l-169 233 l-169 -233q-21 -29 -42 -29q-18 0 -30.5 12.5t-12.5 30.5q0 13 17 36l169 232l-274 90q-25 8 -33.5 18.5t-8.5 25.5z" />
<glyph unicode="+" d="M144 585q0 19 13 30.5t43 11.5h372v418q0 30 12 43t31 13q18 0 30 -13t12 -43v-418h372q30 0 43 -11.5t13 -30.5t-13 -30.5t-43 -11.5h-372v-420q0 -30 -12 -43t-31 -13q-18 0 -30 13t-12 43v420h-372q-30 0 -43 11.5t-13 30.5z" />
<glyph unicode="," d="M299 -240q0 10 3 22l146 520h273l-297 -552q-27 -50 -65 -50q-25 0 -42.5 17.5t-17.5 42.5z" />
<glyph unicode="-" d="M186 519v120h857v-120h-857z" />
<glyph unicode="." d="M461 105q0 58 40.5 97t95.5 39h36q56 0 96 -39.5t40 -95.5q0 -58 -40.5 -97t-95.5 -39h-36q-56 0 -96 39.5t-40 95.5z" />
<glyph unicode="/" d="M230 -129q0 12 10 33l675 1448q11 23 21 30t24 7q17 0 29.5 -12.5t12.5 -27.5q0 -11 -10 -33l-676 -1448q-17 -37 -44 -37q-17 0 -29.5 12.5t-12.5 27.5z" />
<glyph unicode="0" d="M229 523v208q0 272 129 430q101 124 255 124q75 0 140 -29.5t111 -82.5q30 -34 64 -107t50 -133q22 -86 22 -202v-208q0 -271 -129 -429q-101 -124 -255 -124q-74 0 -139.5 29.5t-111.5 82.5q-29 33 -63.5 106t-49.5 134q-23 86 -23 201zM313 535q0 -119 33.5 -222 t76.5 -164q24 -34 64 -59q57 -36 129 -36q140 0 220 144.5t80 336.5v185q0 119 -33.5 221.5t-75.5 163.5q-25 35 -65 60q-57 35 -128 35q-141 0 -221 -144t-80 -336v-185z" />
<glyph unicode="1" d="M0 1056q0 9 60 22q10 -19 74 -278h3q41 27 74 27h20q32 0 117 -98q29 -30 54 -30q20 0 131 105q42 23 70 23h13q66 0 155 -106q25 -22 40 -22q24 0 124 109q34 22 67 22q51 0 107 -52h3q73 304 81 304q60 -11 60 -26q-245 -962 -271 -1056h-714q-8 0 -117 458 q-27 88 -151 598zM151 733q140 -554 164 -654h613q8 0 50 188q111 412 111 439q-48 57 -84 57h-7q-32 0 -117 -102q-40 -26 -60 -26h-20q-42 0 -141 109q-29 19 -54 19q-35 0 -150 -113q-33 -15 -54 -19q-60 0 -161 120l-20 12q-27 0 -70 -30zM315 312v49q0 172 94 229 q38 11 60 11h3q94 0 121 -101q0 -9 3 -15q-3 -4 -53 -8q0 34 -44 68q-22 7 -30 7h-3q-85 0 -97 -169v-11q43 60 103 60h4q108 0 127 -146v-12q0 -118 -107 -158h-44q-120 0 -137 196zM379 271q12 -106 80 -106h13q63 0 74 102v15q0 69 -57 94q-18 3 -30 3q-70 0 -80 -97v-11 zM657 331v52q0 157 87 207q30 11 50 11h3q144 0 144 -237v-7q0 -161 -63 -214q-31 -27 -67 -27h-24q-80 0 -117 109q-13 55 -13 106zM714 323q0 -158 80 -158h10q69 0 80 143v68q0 176 -87 176q-83 0 -83 -161v-68z" />
<glyph unicode="2" d="M-40 1170q55 17 63 17q11 -20 77 -263h4q42 25 77 25h18q39 0 126 -92q30 -29 56 -29q22 0 137 100q44 21 74 21h25q53 0 168 -114q23 -7 32 -7q20 5 119 100q34 25 74 25q55 0 112 -50h4q77 288 84 288h3q60 -14 60 -21q-274 -975 -284 -1003h-745q-11 0 -73 245 q-211 739 -211 758zM118 857q21 -68 172 -616h642q10 0 169 587v4q-46 57 -84 57h-11q-34 0 -123 -96q-41 -25 -63 -25h-21q-43 0 -147 103q-31 18 -53 18q-45 0 -155 -104q-38 -17 -66 -21q-57 0 -162 110q-20 15 -28 15q-33 0 -70 -32zM237 17v57q1 7 7 7h741q7 -1 7 -7 v-57q0 -7 -7 -7h-741q-7 0 -7 7zM290 462v46q0 164 98 217q40 11 63 11h4q98 0 126 -96q0 -8 4 -15q-4 -3 -56 -7q0 32 -46 64q-23 7 -32 7h-3q-89 0 -102 -160v-10q45 57 109 57h4q113 0 133 -139v-11q0 -111 -112 -149h-46q-126 0 -144 185zM357 423q13 -100 84 -100h14 q65 0 77 96v14q0 66 -59 89q-19 4 -32 4q-74 0 -84 -93v-10zM648 480v49q0 149 91 196q32 11 53 11h4q151 0 151 -224v-8q0 -152 -67 -202q-32 -25 -70 -25h-25q-84 0 -123 103q-14 52 -14 100zM708 472q0 -149 84 -149h11q72 0 84 135v64q0 167 -91 167q-88 0 -88 -153v-64 z" />
<glyph unicode="3" d="M0 997q13 11 64 21q7 -12 74 -262h3q38 25 75 25h13q41 0 131 -100q24 -21 48 -21q20 0 121 92q46 29 81 29h13q65 0 158 -103q20 -18 44 -18q13 0 115 99q33 25 70 25q51 0 108 -49l81 287h7q57 -14 57 -21q-266 -982 -273 -1001h-717q-8 0 -81 291q-3 6 -192 706z M155 692l165 -617h620l158 585q-41 60 -84 60h-14q-20 0 -114 -95q-32 -25 -57 -25h-24q-39 0 -138 103q-34 17 -51 17q-42 0 -138 -92q-43 -32 -74 -32q-57 0 -151 107q-21 17 -31 17q-24 0 -67 -28zM323 515v39q1 7 7 7h273q7 -1 7 -7v-36q-112 -143 -145 -280 q-9 -18 -24 -121h-47q-7 0 -7 11q0 165 149 376v3h-206q-7 0 -7 8zM663 312v50q0 148 88 195q30 11 51 11h3q145 0 145 -224v-7q0 -152 -64 -202q-31 -25 -68 -25h-23q-81 0 -118 103q-14 52 -14 99zM721 305q0 -149 81 -149h10q69 0 81 135v64q0 167 -88 167 q-84 0 -84 -153v-64z" />
<glyph unicode="4" d="M-10 1012q13 11 64 21q7 -11 75 -265h3q40 25 74 25h14q41 0 132 -100q23 -21 47 -21q20 0 132 100q42 21 71 21h14q64 0 158 -104q20 -17 44 -17q20 4 115 100q34 25 71 25q50 0 109 -50l81 290h7q57 -14 57 -21q-210 -781 -274 -1011h-720q-8 1 -64 229zM146 704 l165 -624h622q159 586 159 592q-40 60 -84 60h-7q-33 0 -118 -96q-33 -22 -71 -29q-53 0 -132 90q-40 35 -71 35q-42 0 -139 -93q-42 -32 -74 -32q-59 0 -159 115l-20 10q-34 -2 -71 -28zM311 424q0 142 149 154q93 0 132 -114q10 -27 10 -79v-57q0 -136 -78 -190 q-28 -22 -71 -22h-20q-79 0 -108 90l-4 18l11 7h43q13 -68 65 -68h17q77 0 91 150v18q-47 -54 -88 -54h-34q-115 30 -115 147zM369 421q11 -93 88 -93h10q74 12 74 93v14q0 84 -84 97q-74 0 -88 -111zM656 231v7q12 7 27 7h24q5 0 24 -50q29 -32 57 -32h17q84 16 84 104v7 q0 64 -54 93q-33 7 -44 7q-39 0 -74 -43h-3q-48 0 -48 11q37 229 48 229h206q7 -1 7 -7v-39q0 -8 -7 -8h-162q-11 0 -27 -118h3q37 25 74 25q98 0 136 -104q3 -19 3 -32v-25q0 -108 -118 -147h-48q-94 0 -125 115z" />
<glyph unicode="5" d="M-34 1181q0 7 63 21q10 -27 77 -267h3q39 25 77 25h14q43 0 136 -101q27 -22 49 -22q21 0 137 101q43 22 73 22h14q67 0 164 -105q21 -18 46 -18q20 5 119 101q34 26 73 26q52 0 112 -51h3q75 293 84 293h4q59 -14 59 -22l-283 -1020h-744q-8 0 -123 442 q-42 134 -157 575zM123 870l171 -630h640q8 0 52 181q116 398 116 423q-51 55 -88 55h-7q-34 0 -122 -98q-41 -25 -63 -25h-14q-59 0 -147 101q-41 22 -59 22q-43 0 -143 -95q-44 -32 -77 -32q-58 0 -157 108q-22 19 -32 19q-25 0 -70 -29zM239 12v58q1 7 7 7h737q7 -1 7 -7 v-58q0 -7 -7 -7h-737q-7 0 -7 7zM294 587q0 143 154 156q96 0 137 -116q10 -27 10 -79v-58q0 -137 -80 -192q-29 -22 -74 -22h-21q-81 0 -112 91l-3 18l10 7h46q13 -69 66 -69h18q80 0 94 152v18q-49 -54 -91 -54h-35q-119 30 -119 148zM354 584q12 -94 91 -94h10 q77 13 77 94v14q0 85 -87 98q-76 0 -91 -112zM651 392v7q13 8 28 8h24q6 0 25 -51q30 -33 59 -33h18q87 17 87 105v7q0 66 -56 95q-35 7 -45 7q-41 0 -77 -44h-4q-49 0 -49 11q39 232 49 232h214q7 -1 7 -8v-39q0 -8 -7 -8h-168q-11 0 -28 -119h3q38 25 77 25 q101 0 140 -104q3 -20 3 -33v-25q0 -109 -122 -149h-49q-98 0 -129 116z" />
<glyph unicode="6" d="M274 626q0 158 63 294q48 105 128 184.5t186.5 130t230.5 50.5q84 0 140 -34q24 -15 24 -40q0 -18 -11 -29.5t-28 -11.5q-13 0 -31 10q-41 20 -102 20q-195 0 -355.5 -167.5t-160.5 -398.5q0 -33 6 -103q78 115 160.5 170t183.5 55q134 0 238 -111.5t104 -275.5 q0 -150 -95 -274.5t-262 -124.5q-109 0 -203.5 67t-148.5 206q-67 173 -67 383zM383 392q38 -182 119.5 -260t192.5 -78q112 0 191.5 87.5t79.5 227.5q0 131 -80 217t-181 86q-97 0 -187 -83q-60 -55 -135 -197z" />
<glyph unicode="7" d="M211 1096v159h771v-134l-338 -1080q-8 -26 -19 -34.5t-25 -8.5q-18 0 -30 12t-12 28q0 10 6 28l333 1066v38h-602v-74q0 -30 -11.5 -43t-30.5 -13q-18 0 -30 13t-12 43z" />
<glyph unicode="8" d="M231 337q0 95 53.5 178.5t159.5 135.5q-92 53 -134 110q-58 81 -58 179q0 138 106.5 241.5t256.5 103.5q151 0 257 -103.5t106 -241.5q0 -98 -58 -178q-41 -58 -133 -111q105 -51 158.5 -134.5t53.5 -179.5q0 -149 -112 -258t-272 -109t-272 109t-112 258zM315 336 q0 -114 86.5 -198t213.5 -84t213.5 84t86.5 197q0 111 -86 193t-214 82t-214 -82t-86 -192zM337 938q0 -98 79.5 -171.5t197.5 -73.5q119 0 198.5 73.5t79.5 170.5q0 108 -80.5 185.5t-197.5 77.5q-116 0 -196.5 -78t-80.5 -184z" />
<glyph unicode="9" d="M275 878q0 154 95.5 280.5t255.5 126.5q114 0 208 -71t146 -206q67 -173 67 -402q0 -178 -57 -296q-38 -80 -111.5 -155t-165.5 -122q-126 -63 -262 -63q-90 0 -147 34q-26 16 -26 40q0 17 12 28.5t29 11.5q12 0 35 -11q39 -19 90 -19q213 0 366 153.5t153 384.5 q0 42 -4 118q-65 -115 -154.5 -173t-183.5 -58q-87 0 -168.5 50t-129.5 146.5t-48 202.5zM359 879q0 -137 81 -226.5t183 -89.5q59 0 116.5 32t108.5 96q33 43 95 159q-53 203 -131.5 276.5t-183.5 73.5q-107 0 -188 -90t-81 -231z" />
<glyph unicode=":" d="M461 105q0 58 40.5 97t95.5 39h36q56 0 96 -39.5t40 -95.5q0 -58 -40.5 -97t-95.5 -39h-36q-56 0 -96 39.5t-40 95.5zM461 729q0 59 40.5 98t95.5 39h36q56 0 96 -40t40 -95q0 -59 -40.5 -98t-95.5 -39h-36q-56 0 -96 40t-40 95z" />
<glyph unicode=";" d="M312 -163q0 12 6 31l132 434h264l-283 -464q-21 -34 -33.5 -43t-29.5 -9q-24 0 -40 15t-16 36zM461 729q0 59 40.5 98t94.5 39h37q56 0 95.5 -40t39.5 -95q0 -59 -40 -98t-95 -39h-37q-56 0 -95.5 40t-39.5 95z" />
<glyph unicode="&#x3c;" d="M98 583l908 506q22 12 33 12q17 0 29.5 -12.5t12.5 -29.5q0 -25 -34 -44l-778 -432l777 -432q34 -19 34 -44q0 -17 -12.5 -29.5t-29.5 -12.5q-11 0 -33 12z" />
<glyph unicode="=" d="M101 436q0 19 13 30.5t43 11.5h916q30 0 43 -11.5t13 -30.5t-13 -30.5t-43 -11.5h-916q-30 0 -43 11.5t-13 30.5zM101 738q0 18 13 30t43 12h916q30 0 43 -12t13 -31q0 -18 -13 -30t-43 -12h-916q-30 0 -43 12t-13 31z" />
<glyph unicode="&#x3e;" d="M148 107q0 25 34 44l778 432l-777 432q-34 19 -34 44q0 17 12.5 29.5t29.5 12.5q11 0 33 -12l907 -506l-908 -506q-22 -12 -33 -12q-17 0 -29.5 12.5t-12.5 29.5z" />
<glyph unicode="?" d="M275 959v141q156 69 202 81q78 19 156 19q167 0 268.5 -100t101.5 -253q0 -94 -60.5 -166.5t-282.5 -166.5v-85q0 -30 -12 -43t-30 -13q-19 0 -31 13t-12 43v141q219 81 299 162q45 45 45 113q0 112 -81.5 191.5t-211.5 79.5q-66 0 -124.5 -15t-142.5 -56v-86 q0 -30 -11.5 -43t-30.5 -13q-18 0 -30 13t-12 43zM470 73q0 45 31 75t73 30h84q44 0 74.5 -30.5t30.5 -73.5q0 -44 -31.5 -74t-73.5 -30h-84q-43 0 -73.5 30.5t-30.5 72.5z" />
<glyph unicode="@" d="M215 413v336q0 256 136 418q108 130 266 130q82 0 151 -34.5t122 -115t53 -185.5v-576q20 -2 30 -13t10 -28q0 -13 -6.5 -23.5t-16 -15t-33.5 -4.5h-68v11q-25 -4 -46 -6t-39 -2q-123 0 -201.5 76t-78.5 184q0 123 97.5 211.5t267.5 88.5v97q0 110 -68 180t-170 70 q-71 0 -134 -36q-43 -25 -71 -61q-48 -63 -82.5 -151.5t-34.5 -219.5v-331q0 -194 89.5 -326.5t241.5 -132.5q150 0 225 71q17 16 33 16q17 0 29 -12t12 -28q0 -32 -60 -70q-96 -61 -251 -61q-80 0 -146.5 29.5t-111.5 81.5q-28 31 -67 106t-55 133q-23 81 -23 193zM578 567 q0 -76 54.5 -127t152.5 -51q17 0 35.5 2.5t38.5 6.5v384q-132 -1 -206.5 -66t-74.5 -149z" />
<glyph unicode="A" d="M0 1268l8 4h80q9 0 24 -104q72 -72 164 -72q89 0 160 88q29 83 36 84h388q29 0 68 -164q36 -8 64 -8q87 0 152 80q14 96 24 96h76q8 -1 8 -8q-120 -1182 -136 -1264h-972q-15 0 -32 236q-4 18 -112 1032zM128 1060q112 -939 112 -968h772l116 972q-72 -36 -128 -36h-52 l-8 4q16 -99 16 -184v-364q0 -73 -88 -84l-36 4v-20q0 -100 -92 -100q-17 0 -36 8q-11 -72 -72 -72h-28q-53 0 -68 56q-26 -8 -36 -8h-16q-69 0 -76 84v372q-64 -52 -112 -52q-61 0 -76 88q0 36 68 116q54 98 88 172h-4q-41 -20 -100 -20h-16q-57 0 -128 36v-4zM268 756 q0 -36 32 -36q59 0 96 76q13 92 20 92h32q8 -1 8 -8v-548q7 -16 28 -16h20q28 0 28 28v416q1 8 8 8h32q8 -1 8 -8v-464q0 -32 44 -32q36 0 36 44v456q1 8 8 8h28q8 -1 8 -8v-392q0 -40 32 -40h16q32 0 32 32v396q1 8 8 8h32q8 -1 8 -8v-284q0 -28 28 -28h16q36 0 36 64v276 q0 263 -68 432h-340q-6 -1 -64 -148q-70 -158 -172 -304v-12z" />
<glyph unicode="B" horiz-adv-x="1224" d="M15 326q601 1244 605 1244q20 -36 604 -1252q-3 0 -3 -4q-396 4 -605 4h-481q-38 0 -117 4q0 4 -3 4zM131 402q331 -4 505 -4l269 420q-282 585 -282 592h-7q-4 -13 -485 -1004v-4zM719 398h113q3 0 153 256q-38 83 -43 84q-7 -4 -223 -340zM918 398h190l-83 176h-7 q-2 -10 -100 -172v-4z" />
<glyph unicode="C" d="M0 8v1256q1 8 8 8h1240q8 -1 8 -8v-1256q0 -8 -8 -8h-1240q-8 0 -8 8zM84 88h1088v1100h-1088v-1100zM148 640q0 242 224 400q119 76 260 76q266 0 424 -264q52 -116 52 -216q0 -249 -232 -408q-118 -68 -224 -68h-48q-232 0 -392 240q-64 116 -64 240zM244 636 q0 -235 244 -356q69 -24 124 -24h24q229 0 348 240q24 69 24 124v44q0 166 -176 296q-101 60 -204 60q-252 0 -364 -264q-16 -55 -20 -120zM360 628v8q0 73 76 100h36q68 0 88 -92v-16q-20 -92 -92 -92h-16q-92 20 -92 92zM696 624v24q20 88 88 88h24q66 0 88 -92v-4 q0 -78 -80 -104h-28q-92 22 -92 88z" />
<glyph unicode="D" d="M-55 353v4q351 496 360 500h232l-388 400v4q0 6 52 52l100 -96h740l108 104q6 0 52 -52v-4q-81 -88 -84 -88q112 -352 268 -820l-8 -4h-224q32 -36 32 -40v-4q0 -6 -52 -52l-100 96h-720l-108 -104q-6 0 -56 56l44 48h-248zM101 433h172q249 249 336 344h-268 q-15 -27 -240 -340v-4zM381 1137q1 -11 276 -280h32q276 278 276 280h-584zM389 433h568l-284 288q-76 -71 -284 -288zM733 777q335 -344 340 -344h200l-112 344h-428zM805 857h328v4q-76 248 -84 248z" />
<glyph unicode="E" d="M0 616v32q0 296 268 504q165 116 372 116q303 0 512 -268q116 -168 116 -364v-12q0 -334 -316 -540q-150 -84 -288 -84h-52q-274 0 -480 244q-132 177 -132 372zM92 608q0 -237 224 -416q151 -104 316 -104q306 0 484 292q60 123 60 244v28q0 255 -248 440 q-142 84 -292 84h-8q-322 0 -496 -328q-40 -113 -40 -184v-56zM440 280v728q1 8 8 8h488q8 -1 8 -8v-72q0 -8 -8 -8h-396v-232h340q8 -1 8 -8v-72q0 -8 -8 -8h-340v-328q0 -8 -8 -8h-84q-8 0 -8 8z" />
<glyph unicode="F" d="M-15 1179q13 8 64 24q17 -47 70 -296q57 28 91 28q44 0 141 -120q20 -16 37 -16h3q22 0 114 96q47 40 91 40h6q66 0 141 -96q35 -40 54 -40h7q20 0 120 116q41 23 64 24q54 0 107 -56h7q73 324 81 324q52 -16 60 -24q-181 -758 -272 -1128h-714q-8 0 -81 328zM139 831 l165 -696h617q158 655 158 664q-43 68 -88 68h-6q-25 0 -128 -120q-40 -20 -57 -20q-54 0 -151 120q-31 16 -37 16h-20q-36 0 -134 -104q-36 -32 -74 -32q-54 0 -151 124l-17 12h-16q-30 0 -61 -32zM290 311v48q178 295 205 332h33q7 -1 7 -8v-320h54q7 -1 7 -8v-44 q0 -8 -7 -8h-54v-112q0 -8 -7 -8h-40q-7 0 -7 8v112h-184q-7 0 -7 8zM347 363h134v220q-18 -22 -134 -220zM649 403v56q0 167 87 220q31 12 51 12h3q144 0 144 -252v-8q0 -171 -63 -228q-31 -28 -67 -28h-24q-81 0 -117 116q-14 58 -14 112zM706 395q0 -168 81 -168h10 q69 0 80 152v72q0 188 -87 188q-84 0 -84 -172v-72z" />
<glyph unicode="G" d="M0 4q616 1252 616 1260h12q40 -88 616 -1260l-8 -4h-1228zM144 92h956q-391 793 -476 972h-4q-49 -109 -476 -972z" />
<glyph unicode="H" />
<glyph unicode="I" d="M0 156v4l300 576q-156 151 -272 272q0 5 60 60h4l252 -248q191 359 228 440h12l216 -420l236 232q5 0 64 -64l-252 -256q301 -572 308 -596h-148l88 -92v-4q0 -5 -60 -60l-160 156h-624l-160 -156q-5 0 -64 64l88 92h-116z" />
<glyph unicode="J" d="M0 616v36q0 206 148 392l-104 108v4q0 5 60 60l108 -104h4q186 156 404 156h28q206 0 396 -148l100 96q5 0 60 -60v-4l-92 -96v-4q156 -186 156 -416v-4q0 -228 -156 -416v-4l92 -96v-4q0 -5 -60 -60l-100 96q-190 -148 -400 -148h-16q-226 0 -412 156h-4l-108 -104 q-5 0 -60 60v4l104 108q-148 187 -148 392zM92 608q0 -165 124 -320l344 348l-348 344q-120 -162 -120 -320v-52zM280 224q155 -132 332 -132h32q174 0 336 120q-157 162 -356 356q-146 -141 -344 -344zM280 1044q141 -146 344 -344q162 157 356 356q-165 120 -324 120h-44 q-179 0 -332 -132zM692 632q192 -198 352 -352q132 156 132 336v36q0 181 -132 336q-198 -192 -352 -352v-4z" />
<glyph unicode="K" d="M0 40q0 18 236 748h932v396h-712q-9 0 -60 -168h-80l-8 4q71 234 88 244l28 4h780q48 -4 48 -40v-1188q-8 -40 -40 -40h-1172q-40 8 -40 40zM100 84h1068v612h-868q-9 0 -88 -264zM356 368q22 132 132 132q108 0 128 -132q-19 -128 -128 -128q-132 20 -132 128zM780 364 v20q0 81 112 116h20q124 -29 124 -116v-28q0 -79 -100 -112q-5 -4 -28 -4q-128 17 -128 124z" />
<glyph unicode="L" d="M0 620v32q0 298 272 504q168 112 332 112h60q259 0 472 -244q132 -181 132 -380v-12q0 -358 -340 -560q-138 -72 -300 -72q-343 0 -552 328q-76 151 -76 292zM92 604q0 -235 240 -424q146 -88 296 -88h12q302 0 476 292q60 120 60 232v28q0 320 -328 492q-123 44 -212 44 q-290 0 -468 -264q-76 -132 -76 -256v-56zM436 280v728q1 8 8 8h264q209 0 260 -88q36 -61 36 -132v-4q0 -174 -188 -212q-46 -8 -112 -8h-168v-292q0 -8 -8 -8h-84q-8 0 -8 8zM536 660h128q204 0 224 72q12 26 12 56v16q0 124 -172 124h-192v-268z" />
<glyph unicode="M" d="M0 1268l8 4h80q8 0 28 -108q80 -68 152 -68q95 0 180 96q89 -96 180 -96t180 96q84 -96 184 -96q160 28 160 120q5 56 16 56h80l8 -4l-136 -1116l-8 -4h-968q-15 0 -36 244q-8 47 -108 876zM128 1064l116 -824h768l116 824q-71 -36 -128 -36h-28q-78 0 -164 60 q-86 -60 -176 -60h-8q-86 0 -180 60q-77 -60 -160 -60h-28q-57 0 -128 36zM136 8v76q1 8 8 8h968q8 -1 8 -8v-76q0 -8 -8 -8h-968q-8 0 -8 8zM304 552v36q168 242 184 252h28q8 -1 8 -8v-240h44q8 -1 8 -8v-32q0 -8 -8 -8h-44v-80q0 -8 -8 -8h-36q-8 0 -8 8v80h-160 q-8 0 -8 8zM356 592h116v164h-4q-10 -21 -112 -164zM620 612v40q0 188 124 188h16q94 0 112 -164v-52q0 -125 -76 -168q-28 -8 -48 -8h-12q-100 0 -116 164zM672 620q0 -132 80 -132q68 15 68 120v76q0 116 -76 116q-72 0 -72 -132v-48zM928 772q18 72 64 72h24 q50 -10 60 -60v-24q-10 -50 -60 -60h-24q-46 0 -64 72zM960 772q9 -44 44 -44q37 7 44 44q-9 44 -52 44q-36 -13 -36 -44z" />
<glyph unicode="N" d="M-15 1076q20 11 64 21q50 -181 70 -269q47 29 91 29q42 0 124 -94q31 -28 47 -28h10q21 0 124 97q49 25 81 25q74 0 161 -101q22 -21 43 -21q24 0 128 107q40 18 60 18q51 0 111 -53q70 272 80 294q44 -11 64 -22l-272 -1008l-6 -4h-708q-9 0 -98 352q-3 3 -174 657z M139 763q158 -617 168 -624h614l158 599q-52 58 -88 58h-3q-34 0 -124 -101q-36 -25 -67 -25q-51 0 -141 101q-30 21 -50 21h-17q-36 0 -131 -93q-40 -29 -74 -29q-56 0 -157 115q-11 7 -21 7h-10q-29 0 -57 -29zM300 290v10q21 8 51 8q26 -87 80 -87h17q67 0 80 97 q0 67 -77 83h-10l-33 -4q0 4 -4 4q0 47 31 47q73 11 73 71v4q0 68 -77 68q-53 0 -74 -82q-45 7 -53 14q30 90 57 90q22 25 77 25h3q124 -17 124 -122q0 -49 -57 -90q46 0 77 -83v-35q0 -91 -110 -133h-51q-93 0 -124 115zM639 379v51q0 150 87 197q31 11 51 11h3 q144 0 144 -237q0 -175 -87 -216q-16 -10 -44 -10h-23q-81 0 -117 104q-14 52 -14 100zM696 372q0 -151 81 -151h10q69 0 80 137v64q0 169 -87 169q-84 0 -84 -154v-65z" />
<glyph unicode="O" d="M0 8v1252q1 8 8 8h1240q8 -1 8 -8v-1252q0 -8 -8 -8h-1240q-8 0 -8 8zM84 84h1088v1100h-1088v-1100zM148 636q0 280 284 436q98 40 200 40q279 0 432 -280q44 -112 44 -196q0 -224 -188 -380q-130 -100 -292 -100q-291 0 -440 288q-40 104 -40 192zM244 636 q0 -246 256 -364q72 -20 120 -20h8q238 0 352 236q28 62 28 128v36q0 187 -188 312q-90 52 -192 52q-247 0 -360 -252q-16 -39 -24 -128zM528 624v20q0 76 104 92q47 0 88 -56q8 -28 8 -48q0 -87 -104 -100q-96 20 -96 92z" />
<glyph unicode="P" d="M10 79l311 543h718q-76 293 -76 307h-649q-7 0 -7 9v70q1 9 7 9h694q7 0 103 -395q142 -545 142 -548l-7 -4h-1229q-7 0 -7 9zM145 158h1011v4q-92 373 -100 373h-697q-21 -25 -214 -377zM556 346q17 101 79 101h3q87 -12 87 -96v-9q-14 -97 -76 -97h-17q-61 0 -76 101z " />
<glyph unicode="Q" d="M0 1268l8 4h80q9 0 24 -104q73 -72 164 -72q84 0 172 96q87 -96 180 -96q91 0 180 96q81 -96 180 -96q83 0 156 76q13 100 24 100h76q8 -1 8 -8q-16 -131 -132 -956l-8 -4h-972q-10 0 -36 236q-4 11 -104 728zM128 1064q112 -652 112 -668h772l116 668h-4 q-69 -36 -128 -36h-12q-86 0 -180 60h-4q-72 -60 -172 -60h-12q-81 0 -164 60h-8q-83 -60 -164 -60h-12q-73 0 -140 36zM136 8v76q1 8 8 8h968q8 -1 8 -8v-76q0 -8 -8 -8h-968q-8 0 -8 8zM136 156v76q1 8 8 8h968q8 -1 8 -8v-76q0 -8 -8 -8h-968q-8 0 -8 8zM316 664v36 q154 223 180 248h24q8 -1 8 -8v-240h44q8 -1 8 -8v-28q0 -8 -8 -8h-36q-8 -1 -8 -8v-76q0 -8 -8 -8h-32q-8 0 -8 8v84h-156q-8 0 -8 8zM364 700h116v164q-4 0 -116 -164zM628 756q0 192 124 192h4q82 0 112 -92q12 -42 12 -84v-32q0 -184 -128 -184q-124 0 -124 200z M680 724q0 -111 64 -128h8q80 0 80 156t-84 156q-68 -15 -68 -116v-68zM940 868v24q10 50 60 60h16q68 -11 68 -68v-8q-11 -68 -68 -68h-8q-68 14 -68 60zM968 880q0 -39 48 -44q40 12 40 48q-10 40 -44 40q-44 -7 -44 -44z" />
<glyph unicode="R" d="M-5 1154q20 10 64 20q63 -216 70 -252q45 27 84 27h7q43 0 124 -87q27 -27 57 -27q19 0 117 84q43 30 91 30h3q68 0 161 -101q20 -13 37 -13q23 0 124 97q35 20 67 20q48 0 108 -50q70 254 80 275q44 -10 64 -20l-272 -943l-6 -3h-708q-10 0 -74 248q-13 36 -198 695z M149 862q161 -584 168 -584h607q16 20 84 282q7 9 81 278q-52 54 -88 54h-3q-34 0 -124 -94q-36 -23 -67 -23q-51 0 -141 93q-30 21 -50 21h-17q-36 0 -131 -88q-41 -26 -74 -26q-55 0 -157 107q-11 7 -21 7h-10q-29 0 -57 -27zM260 67v57q1 6 7 6h708q6 -1 6 -6v-57 q0 -7 -6 -7h-708q-7 0 -7 7zM310 422v10q21 7 51 7q26 -80 80 -80h17q67 0 80 90q0 62 -77 77h-10l-33 -3q0 3 -4 3q0 44 31 44q73 11 73 67v3q0 64 -77 64q-53 0 -74 -77q-45 7 -53 13q30 84 57 84q22 24 77 24h3q124 -16 124 -114q0 -46 -57 -84q46 0 77 -77v-34 q0 -84 -110 -124h-51q-93 0 -124 107zM649 506v47q0 140 87 185q31 10 51 10h3q144 0 144 -212v-6q0 -144 -63 -192q-31 -23 -68 -23h-23q-81 0 -117 97q-14 49 -14 94zM706 499q0 -140 81 -140h10q69 0 80 127v60q0 158 -87 158q-84 0 -84 -144v-61z" />
<glyph unicode="S" d="M0 1323q52 17 64 17q68 -239 75 -251q41 24 75 24h17q38 0 142 -105q27 -10 34 -10q23 0 115 81q46 34 88 34h17q67 0 160 -102q27 -13 37 -13q19 0 115 91q35 27 75 27q58 0 112 -51q57 218 81 278h3q58 -13 58 -20q-231 -818 -275 -956h-718q-11 0 -126 430 q-20 57 -149 526zM153 1028q166 -578 166 -590h627q3 19 159 563q-48 54 -84 54h-11q-32 0 -122 -95q-34 -20 -64 -20h-14q-39 0 -142 98q-25 17 -51 17q-41 0 -142 -91q-36 -24 -58 -24h-24q-48 0 -142 102q-20 13 -31 13q-24 0 -67 -27zM268 62v54q1 7 7 7h715q7 -1 7 -7 v-54q0 -7 -7 -7h-715q-7 0 -7 7zM268 225v54q1 7 7 7h715q7 -2 7 -7v-54q0 -7 -7 -7h-715q-7 0 -7 7zM319 581v10q20 6 51 6q26 -81 81 -81h17q68 0 81 92q0 62 -78 78h-10l-34 -4q0 4 -3 4q0 44 30 44q75 11 75 67v4q0 64 -78 64q-54 0 -75 -78q-46 7 -54 14q31 85 58 85 q23 23 78 23h3q126 -15 126 -115q0 -46 -58 -85q46 0 78 -78v-34q0 -85 -112 -125h-51q-94 0 -125 109zM661 665v48q0 141 88 186q31 10 51 10h4q145 0 145 -213v-7q0 -145 -64 -193q-31 -24 -68 -24h-24q-81 0 -118 98q-14 50 -14 95zM719 658q0 -142 81 -142h10 q71 0 82 129v61q0 159 -88 159q-85 0 -85 -145v-62z" />
<glyph unicode="T" d="M0 64l316 581h729q-77 311 -77 328h-659q-7 0 -7 10v75q1 9 7 9h705q7 0 105 -422l144 -585l-7 -5h-1249q-7 0 -7 9zM137 149h1028v4q-94 399 -102 399h-709q-22 -30 -217 -403zM365 341v14q0 90 88 103h3q65 0 81 -113q-20 -103 -77 -103h-18q-77 22 -77 99zM600 350 q15 108 81 108h10q68 0 81 -113q-16 -103 -77 -103h-18q-63 0 -77 108zM821 345v10q0 83 81 103h10q67 0 81 -113q-17 -103 -77 -103h-18q-77 21 -77 103z" />
<glyph unicode="U" d="M0 608v44q0 298 272 504q169 112 332 112h48q285 0 492 -256q124 -171 124 -376v-4q0 -358 -340 -560q-138 -72 -300 -72q-342 0 -548 324q-80 152 -80 284zM92 608q0 -229 216 -408q147 -108 320 -108h12q302 0 476 292q60 120 60 232v28q0 278 -256 452 q-139 84 -288 84q-284 0 -464 -264q-76 -132 -76 -256v-52zM436 280v728q1 8 8 8h264q209 0 260 -88q36 -61 36 -132v-4q0 -174 -188 -212q-46 -8 -112 -8h-168v-292q0 -8 -8 -8h-84q-8 0 -8 8zM536 660h128q204 0 224 72q12 26 12 56v16q0 124 -172 124h-192v-268z" />
<glyph unicode="V" d="M-10 1119q13 12 64 23q64 -252 74 -280q44 26 78 26h14q37 0 135 -109q24 -19 37 -19h3q22 0 129 102q46 26 67 26h24q66 0 158 -113q27 -15 38 -15q20 0 114 102q34 30 81 30q48 0 105 -57q74 305 81 311h4q57 -15 57 -23q-220 -880 -274 -1068h-715q-10 0 -82 307 q-43 163 -192 757zM145 794l162 -659h625l159 628q-48 61 -85 61h-13q-23 0 -125 -110q-30 -19 -47 -19h-24q-39 0 -142 110q-19 16 -50 19q-40 0 -149 -110q-18 -13 -61 -23q-56 0 -138 99q-32 34 -47 34q-42 -8 -65 -30zM311 305l34 4h16l34 -68q31 -19 48 -19h16 q72 0 85 117q-11 106 -95 106h-3q-31 0 -81 -45q-2 0 -44 4q36 250 44 250h209q7 -2 7 -8v-42q0 -7 -7 -7h-169q0 -8 -23 -129q33 27 81 30q99 0 135 -113q3 -21 3 -35v-18q0 -117 -118 -160h-47q-125 22 -125 133zM652 388v53q0 159 88 209q30 11 50 11h4q145 0 145 -239 v-7q0 -162 -64 -216q-31 -27 -68 -27h-23q-82 0 -119 110q-13 56 -13 106zM709 381q0 -159 81 -159h10q70 0 82 144v68q0 178 -88 178q-85 0 -85 -163v-68z" />
<glyph unicode="W" d="M-15 1196q13 11 64 21q65 -233 75 -261q43 25 78 25h14q40 0 142 -109q27 -11 34 -11q23 0 115 85q48 35 88 35h17q67 0 160 -106q27 -14 37 -14q21 0 115 95q36 29 75 29q58 0 112 -53q72 282 84 289q58 -14 58 -21q-234 -869 -275 -995h-718q-10 0 -82 286 q-23 79 -193 705zM141 893l163 -614h627l159 586q-48 56 -84 56h-14q-23 0 -126 -102q-30 -18 -47 -18h-24q-38 0 -142 103q-19 15 -51 17q-40 0 -149 -102q-34 -18 -51 -18h-24q-44 0 -156 117l-13 3q-30 0 -68 -28zM253 57v56q1 8 7 8h715q7 -2 7 -8v-56q0 -7 -7 -7h-715 q-7 0 -7 7zM307 438l34 4h17l34 -64q31 -18 47 -18h17q73 0 85 110q-11 98 -95 98h-3q-31 0 -82 -42q-2 0 -44 4q36 232 44 232h211q6 -1 6 -7v-38q0 -7 -6 -7h-170q0 -7 -24 -120q34 25 82 28q99 0 135 -106q4 -19 4 -32v-17q0 -109 -119 -148h-47q-126 20 -126 123z M650 516v49q0 147 88 194q30 11 51 11h3q146 0 146 -223v-7q0 -151 -65 -201q-31 -24 -68 -24h-23q-82 0 -119 102q-13 51 -13 99zM707 509q0 -149 82 -149h10q70 0 81 134v64q0 166 -88 166q-85 0 -85 -152v-63z" />
<glyph unicode="X" d="M0 680v44q0 264 256 452q142 92 312 92q318 0 500 -304q64 -122 64 -268q0 -268 -232 -452q-156 -108 -312 -108h-44q-252 0 -440 236q-104 154 -104 308zM72 8v72q1 8 8 8h968q8 -1 8 -8v-72q0 -8 -8 -8h-968q-8 0 -8 8zM80 700q0 -238 208 -396q128 -88 276 -88 q287 0 440 276q48 111 48 212q0 261 -248 420q-120 64 -240 64q-279 0 -440 -280q-44 -111 -44 -208zM416 368v648q1 8 8 8h432q8 -1 8 -8v-64q0 -8 -8 -8h-352v-204h304q8 -1 8 -8v-64q0 -8 -8 -8h-304v-292q0 -8 -8 -8h-72q-8 0 -8 8z" />
<glyph unicode="Y" d="M-10 1064q9 8 62 18h6l69 -266q48 29 92 29q42 0 133 -101q26 -22 41 -22h10l24 7v4l-304 324v4q0 5 45 47h3q121 -123 311 -328q72 65 137 65q58 0 136 -80q331 357 335 357h4q5 0 44 -47v-3l-328 -350h14q19 0 119 101q33 22 55 22h21q49 0 105 -51q72 273 82 296 q43 -13 62 -22q0 -9 -232 -868q4 0 99 -105q0 -5 -48 -50l-75 76q-14 -69 -24 -69h-721q-9 0 -24 69q-66 -69 -72 -69q-9 0 -44 43v4l92 104zM147 751q124 -486 133 -486l298 317q-100 101 -106 104q-36 -29 -75 -29q-59 0 -154 108q-15 15 -27 15h-7q-32 0 -62 -29z M298 182q13 -58 20 -58h625q0 6 14 58l-331 346q-145 -157 -328 -346zM526 733l100 -101q4 0 85 90q-57 58 -92 58h-11q-35 0 -82 -47zM677 578q168 -182 304 -317q0 13 123 458q-42 64 -96 64q-24 0 -123 -100q-35 -25 -61 -26h-4q-20 0 -58 15q-5 0 -85 -90v-4z" />
<glyph unicode="Z" d="M-19 1198v4q0 5 49 48h4l69 -63h1002l80 74q5 -1 53 -52l-72 -74v-980l53 -56v-3q0 -6 -49 -49h-4l-69 63h-983l-76 -70h-4q-5 0 -49 48v4l68 70v962zM129 236q11 6 198 193v3q-80 96 -80 204v37q0 87 76 192v4q-49 41 -194 181v-814zM178 1113l198 -196q110 78 232 78 q121 0 227 -74l194 192h-851zM190 184h832q-7 11 -194 189q-112 -70 -220 -70q-112 0 -224 74zM323 647q0 -93 61 -163q5 0 167 163l-171 163q-57 -65 -57 -159v-4zM433 861l171 -162q5 0 174 170q-85 52 -170 52q-96 0 -175 -60zM441 429q83 -49 151 -49h23q76 0 156 45v4 q0 4 -167 162zM661 643q66 -70 171 -163h3q61 90 61 171q0 77 -57 162h-4q-5 0 -174 -170zM885 425l201 -193v826q-11 -6 -194 -189v-4q80 -97 80 -218q0 -120 -87 -222z" />
<glyph unicode="[" d="M573 -259v1514h288q30 0 43 -12t13 -31q0 -18 -13 -30t-43 -12h-204v-1345h204q30 0 43 -11.5t13 -30.5t-13 -30.5t-43 -11.5h-288z" />
<glyph unicode="\" d="M227 1343q0 16 12.5 28t29.5 12q27 0 45 -37l675 -1448q10 -22 10 -32q0 -16 -12.5 -28.5t-29.5 -12.5q-28 0 -45 37l-675 1449q-10 21 -10 32z" />
<glyph unicode="]" d="M316 -217q0 18 13 30t43 12h203v1345h-203q-30 0 -43 12t-13 30q0 19 13 31t43 12h288v-1514h-288q-30 0 -43 11.5t-13 30.5z" />
<glyph unicode="^" d="M228 779q0 14 18 37l368 463l369 -463q18 -23 18 -37q0 -18 -12.5 -30t-30.5 -12q-20 0 -42 26l-302 384l-302 -384q-21 -27 -41 -27q-18 0 -30.5 12.5t-12.5 30.5z" />
<glyph unicode="_" d="M0 -519q0 19 13 30.5t43 11.5h1117q31 0 43.5 -11.5t12.5 -30.5t-12.5 -30.5t-43.5 -11.5h-1117q-30 0 -43 11.5t-13 30.5z" />
<glyph unicode="`" d="M444 1286q0 18 12.5 30.5t30.5 12.5q15 0 38 -20l236 -204l22 -25q3 -5 3 -16q0 -18 -12.5 -30.5t-30.5 -12.5q-15 0 -38 20l-236 204q-25 22 -25 41z" />
<glyph unicode="a" d="M144 231q0 122 112 213t327 91q58 0 126 -7.5t147 -23.5v136q0 69 -64 120t-192 51q-98 0 -275 -57q-32 -10 -41 -10q-16 0 -27.5 12t-11.5 30q0 17 10 27q14 15 113 41q156 42 236 42q159 0 248 -78.5t89 -177.5v-556h112q31 0 44 -11.5t13 -30.5q0 -18 -13 -30t-44 -12 h-197v121q-183 -154 -391 -154q-151 0 -236 76.5t-85 187.5zM228 231q0 -76 59.5 -128t173.5 -52q109 0 202.5 43.5t192.5 138.5v185q-59 17 -125 25t-139 8q-183 0 -286 -79q-78 -59 -78 -141z" />
<glyph unicode="b" d="M45 42q0 19 13 30.5t43 11.5h113v1086h-113q-30 0 -43 12t-13 31q0 18 13 30t43 12h197v-557q152 198 367 198q184 0 315 -133.5t131 -327.5q0 -196 -132.5 -332t-313.5 -136q-220 0 -367 198v-165h-197q-30 0 -43 12t-13 30zM299 431q0 -159 109 -269.5t255 -110.5 t255 110.5t109 269.5t-109 269.5t-255 110.5t-255 -110.5t-109 -269.5z" />
<glyph unicode="c" d="M171 425q0 203 133.5 337t336.5 134q193 0 324 -115v28q0 31 12 44t30 13q19 0 31 -13t12 -44v-190q-1 -31 -12.5 -44t-30.5 -13q-17 0 -28.5 11.5t-13.5 38.5q-6 71 -93.5 135t-235.5 64q-187 0 -284 -117t-97 -268q0 -163 107 -269t277 -106q98 0 199.5 36t183.5 116 q21 20 37 20q17 0 28.5 -11.5t11.5 -28.5q0 -43 -101 -109q-163 -107 -363 -107q-203 0 -333.5 129.5t-130.5 328.5z" />
<glyph unicode="d" d="M126 431q0 120 60.5 231.5t165 172.5t219.5 61q220 0 370 -200v474h-112q-31 0 -44 12t-13 31q0 18 13 30t44 12h197v-1171h112q31 0 44 -11.5t13 -30.5q0 -18 -13 -30t-44 -12h-197v167q-146 -200 -371 -200q-114 0 -218.5 60.5t-165 172.5t-60.5 231zM210 431 q0 -159 108 -269.5t258 -110.5q149 0 257 110.5t108 269.5q0 160 -108 270t-257 110q-150 0 -258 -110t-108 -270z" />
<glyph unicode="e" d="M128 451q0 183 135.5 314t335.5 131q206 0 339 -134q131 -133 131 -343v-6h-856q22 -163 136.5 -262.5t283.5 -99.5q94 0 197 31t168 82q19 15 33 15q16 0 28 -12.5t12 -29.5t-16 -33q-48 -50 -170.5 -93.5t-251.5 -43.5q-216 0 -360.5 141.5t-144.5 342.5zM214 498h770 q-25 139 -131.5 226t-253.5 87t-253 -86t-132 -227z" />
<glyph unicode="f" d="M215 42q0 19 13 30.5t43 11.5h203v697h-182q-30 0 -43 12t-13 31q0 18 13 30t43 12h182v127q0 106 86 184t228 78q119 0 254 -22q51 -8 61.5 -19t10.5 -29t-12 -29.5t-32 -11.5q-8 0 -27 3q-151 23 -255 23q-110 0 -169.5 -54t-59.5 -123v-127h393q30 0 43 -12t13 -31 q0 -18 -13 -30t-43 -12h-393v-697h369q30 0 43 -11.5t13 -30.5q0 -18 -13 -30t-43 -12h-657q-30 0 -43 12t-13 30z" />
<glyph unicode="g" d="M125 459q0 181 125.5 309t298.5 128q213 0 348 -184v154h197q30 0 43 -12t13 -31q0 -18 -13 -30t-43 -12h-113v-839q0 -84 -36 -150q-24 -44 -80 -91t-102 -67t-123 -20h-238q-30 0 -43 11.5t-13 30.5t13 31t43 12l241 -1q74 0 133.5 38t98.5 111q22 42 22 107v252 q-135 -185 -348 -185q-173 0 -298.5 128.5t-125.5 309.5zM210 459q0 -148 101 -250.5t242 -102.5t242.5 102.5t101.5 250.5t-101.5 250t-242.5 102t-242 -102.5t-101 -249.5z" />
<glyph unicode="h" d="M85 1213q0 18 13 30t43 12h197v-517q80 87 153.5 122.5t164.5 35.5q98 0 166.5 -34.5t114.5 -106t46 -150.5v-521h94q31 0 43.5 -11.5t12.5 -30.5q0 -18 -12.5 -30t-43.5 -12h-273q-31 0 -44 12t-13 30q0 19 13 30.5t44 11.5h94v515q0 91 -65.5 152t-182.5 61 q-92 0 -157 -45q-47 -32 -155 -151v-532h95q30 0 43 -11.5t13 -30.5q0 -18 -13 -30t-43 -12h-274q-30 0 -43 12t-13 30q0 19 13 30.5t43 11.5h95v1086h-113q-30 0 -43 12t-13 31z" />
<glyph unicode="i" d="M189 42q0 19 13 30.5t43 11.5h330v697h-245q-30 0 -43.5 12t-13.5 30q0 19 13 31t44 12h329v-782h330q31 0 44 -11.5t13 -30.5q0 -18 -13 -30t-44 -12h-744q-30 0 -43 12t-13 30zM532 1080v217h124v-217h-124z" />
<glyph unicode="j" d="M180 -344q0 19 13 31t43 12l265 -1q107 0 173 70t66 173v840h-499q-30 0 -43 12t-13 31q0 18 12.5 30t43.5 12h583v-925q0 -107 -44 -179t-132 -117q-61 -31 -145 -31h-267q-30 0 -43 11.5t-13 30.5zM611 1080v217h124v-217h-124z" />
<glyph unicode="k" d="M191 42q0 19 13 30.5t43 11.5h113v1086h-113q-30 0 -43 12t-13 31q0 18 13 30t43 12h197v-774l357 300h-43q-30 0 -43 12t-13 30q0 19 13 31t43 12h269q31 0 44 -12t13 -31q0 -18 -13 -30t-44 -12h-97l-328 -274l415 -423h97q31 0 44 -11.5t13 -30.5q0 -18 -13 -30 t-44 -12h-272q-30 0 -43 12t-13 30q0 19 13 30.5t43 11.5h59l-361 371l-96 -81v-374h-197q-30 0 -43 12t-13 30z" />
<glyph unicode="l" d="M187 42q0 19 13 30.5t43 11.5h330v1086h-242q-30 0 -43.5 12t-13.5 31q0 18 13 30t44 12h326v-1171h330q31 0 44 -11.5t13 -30.5q0 -18 -13 -30t-44 -12h-744q-30 0 -43 12t-13 30z" />
<glyph unicode="m" d="M21 42q0 19 13 30.5t43 11.5h71v697h-71q-30 0 -43 12t-13 31q0 18 13 30t43 12h155v-85q107 115 215 115q65 0 114 -34.5t82 -104.5q56 70 113.5 104.5t115.5 34.5q91 0 145 -59q71 -76 71 -166v-587h71q30 0 43 -11.5t13 -30.5q0 -18 -13 -30t-43 -12h-155v663 q0 64 -39 106t-90 42q-46 0 -97 -34.5t-116 -135.5v-557h70q30 0 43 -11.5t13 -30.5q0 -18 -13 -30t-43 -12h-155v657q0 67 -39.5 110.5t-88.5 43.5q-45 0 -89 -29q-61 -41 -128 -141v-557h71q30 0 43 -11.5t13 -30.5q0 -18 -13 -30t-43 -12h-226q-30 0 -43 12t-13 30z" />
<glyph unicode="n" d="M108 42q0 19 13 30.5t43 11.5h95v697h-71q-30 0 -43 12t-13 31q0 18 13 30t43 12h155v-127q88 89 159 123t160 34q96 0 175 -41q56 -30 101.5 -99.5t45.5 -142.5v-529h71q30 0 43 -11.5t13 -30.5q0 -18 -13 -30t-43 -12h-225q-31 0 -44 12t-13 30q0 19 13 30.5t44 11.5 h70v515q0 89 -65 150.5t-174 61.5q-83 0 -144 -33.5t-174 -166.5v-527h95q30 0 43 -11.5t13 -30.5q0 -18 -13 -30t-43 -12h-274q-30 0 -43 12t-13 30z" />
<glyph unicode="o" d="M145 431q0 192 137 328.5t333 136.5q194 0 331.5 -136t137.5 -329q0 -192 -137.5 -328t-331.5 -136q-196 0 -333 136.5t-137 327.5zM229 431q0 -156 112.5 -268t272.5 -112t272.5 111.5t112.5 268.5q0 158 -112.5 269t-272.5 111t-272.5 -111.5t-112.5 -268.5z" />
<glyph unicode="p" d="M45 -344q0 19 13 30.5t43 11.5h113v1083h-113q-30 0 -43 12t-13 31q0 18 13 30t43 12h197v-153q75 91 161 137t203 46q124 0 229 -58t162.5 -161.5t57.5 -217.5q0 -181 -129.5 -309.5t-318.5 -128.5q-225 0 -365 183v-506h204q30 0 43 -11.5t13 -30.5q0 -18 -13 -30 t-43 -12h-401q-30 0 -43 11.5t-13 30.5zM298 459q0 -145 106 -249t259 -104q151 0 257 103.5t106 249.5q0 145 -105.5 248.5t-257.5 103.5q-153 0 -259 -104t-106 -248z" />
<glyph unicode="q" d="M128 459q0 182 129.5 309.5t319.5 127.5q224 0 363 -183v153h197q31 0 44 -12t13 -31q0 -18 -13 -30t-44 -12h-112v-1083h112q31 0 44 -11.5t13 -30.5q0 -18 -13 -30t-44 -12h-400q-30 0 -43 11.5t-13 30.5t13 30.5t43 11.5h203v506q-139 -183 -365 -183 q-188 0 -317.5 128.5t-129.5 309.5zM212 459q0 -145 106 -249t258 -104t258 104t106 249t-106 248.5t-258 103.5t-258 -103.5t-106 -248.5z" />
<glyph unicode="r" d="M171 41q0 17 12.5 28.5t43.5 11.5h203v700h-155q-30 0 -43 12t-13 31q0 18 12.5 30t43.5 12h239v-212q164 148 245.5 190.5t150.5 42.5q75 0 139.5 -50.5t64.5 -76.5q0 -19 -12.5 -31.5t-31.5 -12.5q-10 0 -17 3.5t-26 22.5q-35 35 -61 48t-51 13q-55 0 -132.5 -44 t-268.5 -215v-460h372q31 0 44 -11.5t13 -30.5q0 -18 -13 -30t-44 -12h-659q-30 0 -43 11.5t-13 29.5z" />
<glyph unicode="s" d="M207 56v173q0 30 11.5 43t30.5 13q18 0 30.5 -12.5t12.5 -33.5q0 -46 23 -77q35 -48 111.5 -79.5t187.5 -31.5q164 0 244 61t80 129q0 78 -81 125q-82 47 -238.5 63t-224.5 42t-106 78t-38 112q0 108 106 171.5t253 63.5q174 0 283 -85q0 29 12 42t30 13q19 0 31 -13 t12 -44v-144q0 -30 -12 -43t-31 -13q-17 0 -28.5 11t-13.5 36q-6 60 -62 99q-82 56 -217 56q-141 0 -219 -57q-59 -43 -59 -96q0 -60 70 -100q48 -28 182 -43q175 -19 243 -43q97 -35 144.5 -97t47.5 -134q0 -107 -103 -190.5t-302 -83.5t-326 101q0 -34 -4 -44t-14.5 -17 t-23.5 -7q-18 0 -30 13t-12 43z" />
<glyph unicode="t" d="M146 824q0 18 13 30t43 12h155v248q0 30 12 43t30 13q19 0 31 -13t12 -43v-248h456q30 0 43 -12t13 -31q0 -18 -13 -30t-43 -12h-456v-559q0 -73 58.5 -122t171.5 -49q85 0 184 25.5t154 57.5q20 13 33 13q16 0 28 -12.5t12 -29.5q0 -15 -13 -28q-32 -33 -155.5 -71.5 t-236.5 -38.5q-147 0 -234 69t-87 186v559h-155q-30 0 -43 12t-13 31z" />
<glyph unicode="u" d="M91 824q0 18 13 30t43 12h197v-627q0 -82 52 -135t130 -53q205 0 376 188v542h-155q-30 0 -43 12t-13 31q0 18 13 30t43 12h239v-782h71q30 0 43 -11.5t13 -30.5q0 -18 -13 -30t-43 -12h-155v123q-172 -156 -372 -156q-123 0 -187 67q-83 88 -83 205v542h-113 q-30 0 -43 12t-13 31z" />
<glyph unicode="v" d="M59 824q0 18 13 30t43 12h315q30 0 43 -12t13 -31q0 -18 -13 -30t-43 -12h-139l308 -697h37l302 697h-140q-30 0 -43 12t-13 31q0 18 13 30t43 12h316q31 0 43.5 -12t12.5 -31q0 -18 -12.5 -30t-43.5 -12h-85l-341 -781h-142l-345 781h-86q-30 0 -43 12t-13 31z" />
<glyph unicode="w" d="M56 824q0 18 13 30t43 12h231q30 0 43 -12t13 -31q0 -18 -13 -30t-43 -12h-107l149 -666l179 532h100l184 -532l143 666h-106q-30 0 -43.5 12t-13.5 31q0 18 13 30t44 12h230q31 0 44 -12t13 -31q0 -18 -13 -30t-44 -12h-40l-171 -781l-104 -1l-185 540l-184 -540l-104 1 l-174 781h-41q-30 0 -43 12t-13 31z" />
<glyph unicode="x" d="M101 42q0 13 7.5 24t17 14.5t47.5 3.5l385 369l-342 328q-36 0 -45.5 4t-17 15t-7.5 24q0 18 13 30t44 12h229q31 0 43.5 -12t12.5 -31q0 -18 -12.5 -30t-43.5 -12h-100l283 -273l285 273h-100q-30 0 -43.5 12t-13.5 31q0 18 13 30t44 12h229q30 0 43 -12t13 -31 q0 -12 -7.5 -23t-17 -15t-45.5 -4l-343 -328l385 -369q38 0 48 -3.5t17.5 -14.5t7.5 -24q0 -18 -13 -30t-44 -12h-270q-31 0 -44 12t-13 30q0 19 13 30.5t44 11.5h139l-327 313l-325 -313h140q30 0 43 -11.5t13 -30.5q0 -18 -13 -30t-43 -12h-273q-30 0 -43 12t-13 30z" />
<glyph unicode="y" d="M149 823q0 13 6.5 23.5t17 15t32.5 4.5h230q30 0 43 -12t13 -31q0 -18 -13 -30t-43 -12h-113l343 -689l338 689h-113q-30 0 -43 12t-13 31q0 18 13 30t43 12h229q31 0 44 -12t13 -31q0 -13 -8 -24t-18 -14.5t-56 -3.5l-532 -1083h131q30 0 43 -11.5t13 -30.5 q0 -18 -13 -30t-43 -12h-484q-30 0 -43 11.5t-13 30.5t13 30.5t43 11.5h263l148 302l-390 781h-25q-30 0 -43 12t-13 30z" />
<glyph unicode="z" d="M237 0v75l626 706h-522v-114q0 -30 -12 -43t-30 -13q-19 0 -31 13t-12 43v199h726v-75l-629 -707h568v116q0 30 11.5 43t30.5 13t31 -13t12 -43l-1 -200h-768z" />
<glyph unicode="{" d="M405 498q0 19 11 30t39 14q52 4 84.5 41.5t32.5 92.5v360q0 94 60 156.5t144 62.5q24 0 37 -12t13 -30t-13 -30q-9 -10 -41 -13q-50 -5 -82.5 -42t-32.5 -92v-360q0 -63 -20 -101.5t-71 -76.5q50 -38 68 -72q23 -45 23 -107v-359q0 -57 33 -93.5t82 -41.5q31 -3 41 -12 q13 -12 13 -30q0 -19 -13 -30.5t-38 -11.5q-79 0 -132 50q-71 69 -71 168v360q0 55 -33 92.5t-84 41.5q-28 3 -39 14t-11 31z" />
<glyph unicode="|" d="M572 -203v1401q0 31 12 44t30 13q19 0 31 -13t12 -44l-1 -1401q0 -30 -11.5 -43t-30.5 -13q-18 0 -30 13t-12 43z" />
<glyph unicode="}" d="M404 -217q0 18 12 30q10 9 42 12q50 5 82.5 42.5t32.5 92.5v359q0 63 20 102t71 77q-51 38 -68 72q-23 44 -23 106v360q0 56 -33 93t-82 41q-32 3 -41 12q-13 13 -13 31t12.5 30t37.5 12q80 0 132 -51q71 -68 71 -168v-360q0 -55 33.5 -92.5t84.5 -41.5q27 -3 38.5 -14 t11.5 -30q0 -20 -11.5 -31t-38.5 -14q-52 -4 -85 -41.5t-33 -92.5v-360q0 -94 -60 -156.5t-143 -62.5q-25 0 -37.5 12t-12.5 31z" />
<glyph unicode="~" d="M187 541q0 16 26 49q66 82 118 113.5t101 31.5q41 0 81 -19.5t103 -76.5q101 -93 125.5 -107.5t48.5 -14.5q71 0 151 102q29 37 39 43t23 6q16 0 28 -12t12 -28q0 -35 -87 -115.5t-160 -80.5q-45 0 -91 25.5t-131 105.5q-57 54 -86.5 71t-53.5 17q-29 0 -55 -16 q-35 -20 -96 -91q-29 -33 -37.5 -38t-18.5 -5q-17 0 -28.5 11.5t-11.5 28.5z" />
<glyph unicode="&#xa0;" />
<glyph unicode="&#xa1;" d="M491 774q0 45 31 74.5t73 29.5h39q43 0 73.5 -30.5t30.5 -72.5q0 -45 -31 -75t-73 -30h-39q-43 0 -73.5 30.5t-30.5 73.5zM533 -307q0 10 2 33l37 645q2 32 13.5 45t28.5 13q18 0 29.5 -13t13.5 -45l38 -645q1 -23 1 -35q0 -34 -23 -57t-58 -23t-58.5 22.5t-23.5 59.5z " />
<glyph unicode="&#xa2;" d="M228 646q0 160 110 270q81 81 233 114v250q0 30 11.5 43t30.5 13t30.5 -13t11.5 -43v-247q128 -4 218 -75q5 17 16 25.5t25 8.5q19 0 31 -13t12 -38v-127q0 -31 -11.5 -44t-30.5 -13q-17 0 -28 11t-14 37q-8 60 -68.5 103.5t-169.5 43.5q-144 0 -233.5 -87t-89.5 -218 q0 -129 89 -216.5t225 -87.5q67 0 139 23t122 64q21 17 37 17q18 0 29 -11.5t11 -29.5q0 -29 -51 -61q-117 -74 -258 -82v-207q0 -30 -11.5 -43t-30.5 -13t-30.5 13t-11.5 43v207q-149 18 -246 127t-97 256z" />
<glyph unicode="&#xa3;" d="M124 609q0 19 13 30.5t43 11.5h195q-57 177 -57 253q0 122 87 210t207 88q105 0 187 -67t82 -107q0 -14 -13 -26.5t-29 -12.5q-18 0 -38 25q-79 103 -186 103q-87 0 -149.5 -63t-62.5 -150q0 -35 9 -78q2 -7 49 -175h205q30 0 43 -11.5t13 -30.5t-13 -30.5t-43 -11.5 h-186q10 -62 10 -121q0 -96 -29.5 -191.5t-88.5 -170.5h519q38 0 64.5 27.5t30.5 80.5q2 24 13.5 35.5t28.5 11.5q18 0 30.5 -12.5t12.5 -32.5q0 -83 -53 -138.5t-122 -55.5h-669q-30 0 -43 12t-13 30q0 17 12 29t35 12q43 2 79 40q53 54 82 150t29 178q0 67 -12 116h-216 q-30 0 -43 11.5t-13 30.5z" />
<glyph unicode="&#xa4;" d="M206 242q0 9 3 15q5 9 19 24l116 115q-74 97 -74 212t72 211l-114 114q-22 22 -22 40q0 17 12.5 29.5t30.5 12.5q17 0 39 -22l114 -114q91 73 213 73q120 0 211 -73l114 114q23 22 40 22q18 0 30 -12.5t12 -30.5q0 -9 -3 -16q-5 -9 -19 -23l-114 -114q72 -95 72 -210 q0 -119 -73 -213l115 -115q22 -23 22 -40q0 -18 -12.5 -30t-30.5 -12q-16 0 -39 22l-115 115q-96 -72 -211 -72t-210 72l-116 -115q-15 -15 -22.5 -18.5t-16.5 -3.5q-18 0 -30.5 12t-12.5 31zM355 608q0 -107 76 -183t183 -76t183.5 76t76.5 183q0 108 -76 184t-184 76 q-107 0 -183 -76t-76 -184z" />
<glyph unicode="&#xa5;" d="M98 1128q0 19 13 30.5t43 11.5h230q30 0 43 -11.5t13 -30.5t-13 -30.5t-43 -11.5h-81l311 -472l311 472h-82q-30 0 -43 11.5t-13 30.5t13 30.5t43 11.5h228q31 0 44 -11.5t13 -30.5t-13 -30.5t-44 -11.5h-48l-340 -515h245q22 0 31.5 -8.5t9.5 -21.5q0 -14 -9.5 -22 t-31.5 -8h-271v-158h271q22 0 31.5 -8t9.5 -22q0 -13 -9.5 -21.5t-31.5 -8.5h-271v-209h179q30 0 43 -11.5t13 -30.5q0 -18 -13 -30t-43 -12h-443q-30 0 -43 12t-13 30q0 19 13 30.5t43 11.5h179v209h-271q-21 0 -30.5 8.5t-9.5 21.5q0 14 9.5 22t30.5 8h271v158h-271 q-21 0 -30.5 8.5t-9.5 21.5t9.5 21.5t30.5 8.5h242l-339 515h-50q-30 0 -43 11.5t-13 30.5z" />
<glyph unicode="&#xa6;" d="M572 -143v376q0 79 2 87q3 13 14.5 21.5t25.5 8.5t25.5 -8.5t14.5 -21.5q3 -8 3 -87l-1 -376q0 -88 -6 -97q-14 -19 -36 -19q-14 0 -25.5 8.5t-14.5 20.5q-2 9 -2 87zM572 762v376q0 79 2 87q3 12 14.5 21t25.5 9t25.5 -9t14.5 -21q3 -9 3 -87l-1 -376q0 -88 -6 -98 q-14 -19 -36 -19q-14 0 -25.5 9t-14.5 21q-2 9 -2 87z" />
<glyph unicode="&#xa7;" d="M143 743q0 62 56 110t170 54q-34 51 -34 99q0 65 30 119t88.5 92t128.5 38h415v-217q0 -21 -8 -30.5t-21 -9.5q-14 0 -22.5 9.5t-8.5 30.5v156h-350q-78 0 -135 -56t-57 -124q0 -49 37 -93q54 -65 268 -187l113 -64q164 -94 218 -156q54 -63 54 -130q0 -65 -57.5 -114 t-166.5 -50q34 -53 34 -107q0 -59 -29.5 -115.5t-88.5 -92t-139 -35.5h-406v219q0 21 8.5 30.5t21.5 9.5q14 0 22.5 -9.5t8.5 -30.5v-158h344q100 0 149 60t49 116q0 48 -38 96q-51 64 -233 169l-130 75q-174 101 -232 168q-59 67 -59 128zM203 739q0 -45 58 -99 q57 -55 215 -146l125 -73q155 -90 213 -146q10 6 31 7q100 2 140 32.5t40 67.5q0 38 -36 83q-49 62 -200 148l-130 73q-109 62 -152.5 92t-89.5 71q-14 -3 -34 -3q-93 0 -136.5 -33t-43.5 -74z" />
<glyph unicode="&#xa8;" d="M319 1147q0 34 24 58t57 24q34 0 58 -24t24 -58t-24 -57.5t-58 -23.5q-33 0 -57 24t-24 57zM748 1147q0 34 23.5 58t57.5 24t58 -24t24 -58t-24 -57.5t-58 -23.5t-57.5 24t-23.5 57z" />
<glyph unicode="&#xa9;" d="M0 584q0 254 179 433t432 179q254 0 433 -179t179 -433q0 -253 -179 -432t-433 -179q-253 0 -432 179t-179 432zM67 584q0 -225 159.5 -384t384.5 -159q226 0 385 159t159 384q0 226 -159 385t-385 159q-225 0 -384.5 -159t-159.5 -385zM325 550v97q0 106 76 201t206 95 q119 0 203 -81v34q0 17 7 24.5t18 7.5q10 0 16.5 -7.5t6.5 -24.5v-132q0 -14 -2.5 -19.5t-8.5 -9t-13 -3.5q-9 0 -15.5 6.5t-8.5 21.5q-3 49 -51 85q-66 50 -150 50q-100 0 -158 -63q-78 -86 -78 -192v-83q0 -107 77 -185.5t178 -78.5q116 0 204 107q10 12 21 12t17 -6 t6 -16q0 -28 -75 -86t-171 -58q-85 0 -153 42.5t-122 135.5q-30 53 -30 126z" />
<glyph unicode="&#xaa;" d="M296 900q0 76 74.5 135.5t222.5 59.5q35 0 76.5 -4t89.5 -12v66q0 34 -32 58q-42 31 -122 31q-61 0 -175 -34q-22 -6 -30 -6q-16 0 -27.5 11t-11.5 28q0 14 10 24.5t69 25.5q111 28 168 28q111 0 171.5 -51.5t60.5 -114.5v-321h60q26 0 38 -11t12 -27t-12 -27.5 t-38 -11.5h-141v60q-115 -80 -240 -80q-107 0 -165 51t-58 122zM377 900q0 -39 34 -67.5t105 -28.5q127 0 243 102l-1 95q-34 9 -73 13t-84 4q-116 0 -179 -45q-45 -32 -45 -73z" />
<glyph unicode="&#xab;" d="M99 434l448 410q26 24 44 24t30 -12t12 -31q0 -16 -23 -41l-313 -350l313 -349q23 -25 23 -42q0 -18 -12 -30t-30 -12t-44 23zM568 434l448 410q26 24 44 24t30 -12t12 -31q0 -16 -22 -41l-313 -350l313 -349q22 -25 22 -42q0 -18 -12 -30t-30 -12t-44 23z" />
<glyph unicode="&#xac;" d="M24 585q0 19 13 30.5t43 11.5h1005v-504q0 -30 -12 -43t-30 -13q-19 0 -31 13t-12 43v420h-920q-23 0 -33 4.5t-16.5 15t-6.5 22.5z" />
<glyph unicode="&#xad;" d="M186 519v120h857v-120h-857z" />
<glyph unicode="&#xae;" d="M0 584q0 254 179 433t432 179q254 0 433 -179t179 -433q0 -253 -179 -432t-433 -179q-253 0 -432 179t-179 432zM67 584q0 -225 159.5 -384t384.5 -159q226 0 385 159t159 384q0 226 -159 385t-385 159q-225 0 -384.5 -159t-159.5 -385zM317 277q0 6 4 12.5t9.5 9 t18.5 2.5h64v567h-64q-13 0 -18.5 3t-9.5 9t-4 12q0 7 4 13t9.5 8.5t18.5 2.5h288q89 0 150 -56.5t61 -127.5q0 -51 -38 -96t-126 -75q51 -34 87.5 -78.5t115.5 -181.5h37q13 0 18.5 -3t9.5 -9t4 -12q0 -7 -4 -13t-9.5 -8.5t-18.5 -2.5h-64q-87 157 -135.5 211t-112.5 85 h-151v-248h88q13 0 18.5 -3t9.5 -8.5t4 -12.5t-4 -13t-9.5 -8.5t-18.5 -2.5h-200q-13 0 -18.5 2.5t-9.5 8.5t-4 13zM461 596h129q99 0 154.5 44.5t55.5 94.5q0 48 -47.5 90.5t-116.5 42.5h-175v-272z" />
<glyph unicode="&#xaf;" d="M-27 1383q0 18 13 30t43 12h1171q31 0 43.5 -12t12.5 -31q0 -18 -12.5 -30t-43.5 -12h-1171q-30 0 -43 12t-13 31z" />
<glyph unicode="&#xb0;" d="M337 1214q0 115 81.5 196t195.5 81q116 0 197 -81t81 -196t-81.5 -196.5t-196.5 -81.5q-114 0 -195.5 81t-81.5 197zM446 1214q0 -70 49.5 -119.5t119.5 -49.5q69 0 118.5 49.5t49.5 119.5t-49.5 119.5t-118.5 49.5q-70 0 -119.5 -49.5t-49.5 -119.5z" />
<glyph unicode="&#xb1;" d="M144 42q0 14 8.5 25.5t21.5 14.5q8 3 87 3l707 -1q79 0 87 -2q13 -3 21.5 -14.5t8.5 -25.5t-8.5 -25.5t-21.5 -14.5q-8 -2 -87 -2h-707q-79 0 -87 2q-13 3 -21.5 14.5t-8.5 25.5zM144 718q0 19 13 30.5t43 11.5h372v418q0 30 12 43t31 13q18 0 30 -13t12 -43v-418h372 q30 0 43 -11.5t13 -30.5t-13 -30.5t-43 -11.5h-372v-420q0 -30 -12 -43t-31 -13q-18 0 -30 13t-12 43v420h-372q-30 0 -43 11.5t-13 30.5z" />
<glyph unicode="&#xb2;" d="M341 616v72q353 277 401 339q28 36 28 69q0 50 -46.5 91.5t-117.5 41.5q-61 0 -106 -30t-63 -79q-4 -13 -10 -17q-12 -7 -26 -7q-17 0 -28 9q-8 7 -8 17q0 46 67.5 104.5t173.5 58.5q102 0 170 -60t68 -128q0 -38 -18 -68q-29 -48 -162 -160q-165 -139 -244 -196h350 q0 27 7 33q11 12 30 12q18 0 30 -11q7 -7 7 -24v-67h-503z" />
<glyph unicode="&#xb3;" d="M355 696q0 11 9.5 19t24.5 8t44 -17q78 -49 171 -49q85 0 138 45.5t53 98.5q0 54 -54 99.5t-154 47.5q-25 1 -35 9t-10 20q0 11 10.5 19t32.5 8q79 0 112 13.5t52 40.5t19 56q0 44 -40.5 79.5t-111.5 35.5q-103 0 -157 -57q-13 -15 -33 -15q-16 0 -26 8t-10 18q0 9 11 21 q33 36 91 58.5t124 22.5q103 0 164.5 -52.5t61.5 -118.5q0 -44 -24 -77q-33 -45 -82 -65q63 -27 98 -74t35 -96q0 -75 -73 -138t-192 -63q-71 0 -144 26.5t-98 51.5q-7 8 -7 17z" />
<glyph unicode="&#xb4;" d="M443 1064q0 10 4.5 18t20.5 23l236 204q23 20 39 20q17 0 29.5 -12.5t12.5 -30.5q0 -10 -4.5 -18.5t-20.5 -22.5l-237 -204q-22 -20 -38 -20q-17 0 -29.5 12.5t-12.5 30.5z" />
<glyph unicode="&#xb5;" d="M90 824q0 18 13 30t43 12h197v-627q0 -82 52 -135t130 -53q205 0 376 188v542h-155q-30 0 -43 12t-13 31q0 18 13 30t43 12h239v-782h71q30 0 43 -11.5t13 -30.5q0 -18 -13 -30t-43 -12h-155v123q-172 -156 -374 -156q-109 0 -184 67v-364q0 -30 -11.5 -43t-30.5 -13 t-30.5 13t-11.5 43v1111h-113q-30 0 -43 12t-13 31z" />
<glyph unicode="&#xb6;" d="M171 857v97q0 65 35 124q25 42 60 68q51 38 141 73.5t207 35.5h409q22 0 31.5 -8.5t9.5 -21.5q0 -14 -9.5 -22.5t-31.5 -8.5h-128v-1263h131q22 0 31 -8.5t9 -21.5q0 -14 -9.5 -22.5t-30.5 -8.5h-195q-22 0 -31.5 8.5t-9.5 22.5q0 8 5.5 16t13 11t25.5 3v1263h-176v-1263 q19 0 26.5 -3t12.5 -11t5 -16q0 -14 -9.5 -22.5t-30.5 -8.5h-280q-21 0 -30.5 8.5t-9.5 21.5q0 14 9.5 22.5t30.5 8.5h215v633q-118 8 -213 45q-56 21 -110.5 66.5t-78.5 84.5t-24 97zM292 872q0 -55 27 -95q49 -70 105 -101q74 -40 173 -49v567q-145 -13 -225 -87.5 t-80 -157.5v-77z" />
<glyph unicode="&#xb7;" d="M708 683q0 43 30 73t73 30q42 0 72 -30t30 -73q0 -42 -30 -72t-72 -30q-43 0 -73 30t-30 72z" />
<glyph unicode="&#xb8;" d="M442 -258q0 13 8.5 21.5t21.5 8.5q10 0 23 -7q68 -38 125 -38q39 0 61 18.5t22 40.5q0 19 -17 33q-23 18 -59 18h-41v153q0 22 8.5 31t21.5 9q14 0 22 -9.5t8 -30.5v-96q56 -8 87 -38.5t31 -71.5q0 -49 -37.5 -83t-106.5 -34q-47 0 -101 18.5t-67 33.5q-10 11 -10 23z " />
<glyph unicode="&#xb9;" d="M374 645q0 11 10.5 19.5t34.5 8.5h158v529l-148 -40q-11 -3 -19 -3q-15 0 -25 8.5t-10 19.5q0 9 6.5 16t28.5 13l241 66v-609h157q25 0 35.5 -8.5t10.5 -20.5q0 -11 -10.5 -19.5t-35.5 -8.5h-389q-24 0 -34.5 8.5t-10.5 20.5z" />
<glyph unicode="&#xba;" d="M294 1019q0 118 91.5 205t226.5 87t226.5 -87t91.5 -205t-91.5 -205t-226.5 -87t-226.5 87.5t-91.5 204.5zM375 1019q0 -86 68 -150.5t169 -64.5t169 64.5t68 150.5q0 87 -68 151t-169 64t-169 -64.5t-68 -150.5z" />
<glyph unicode="&#xbb;" d="M127 43q0 17 22 42l313 349l-313 350q-22 25 -22 42q0 18 12 30t30 12t43 -24l449 -410l-449 -410q-25 -23 -43 -23t-30 12t-12 30zM596 43q0 17 22 42l313 349l-313 350q-22 25 -22 42q0 18 12 30t30 12t44 -24l448 -410l-448 -410q-26 -23 -44 -23t-30 12t-12 30z" />
<glyph unicode="&#xbc;" d="M0 645q0 11 10.5 19.5t34.5 8.5h158v529l-148 -40q-11 -3 -19 -3q-15 0 -25 8.5t-10 19.5q0 9 6.5 16t28.5 13l241 66v-609h157q25 0 35.5 -8.5t10.5 -20.5q0 -11 -10.5 -19.5t-35.5 -8.5h-389q-24 0 -34.5 8.5t-10.5 20.5zM193 331q0 23 31 43l915 590q23 14 35 14 q17 0 29.5 -12.5t12.5 -29.5q0 -23 -31 -43l-915 -590q-23 -14 -35 -14q-18 0 -30 12t-12 30zM740 179v57l279 417h124v-418h29q25 0 35.5 -8.5t10.5 -19.5q0 -7 -5 -14t-13.5 -10.5t-27.5 -3.5h-29v-123h29q25 0 35.5 -8.5t10.5 -19.5t-10.5 -19.5t-35.5 -8.5h-184 q-25 0 -35.5 8.5t-10.5 19.5q0 12 10.5 20t35.5 8h81v123h-329zM820 235h249v362h-6z" />
<glyph unicode="&#xbd;" d="M0 645q0 11 10.5 19.5t34.5 8.5h158v529l-148 -40q-11 -3 -19 -3q-15 0 -25 8.5t-10 19.5q0 9 6.5 16t28.5 13l241 66v-609h157q25 0 35.5 -8.5t10.5 -20.5q0 -11 -10.5 -19.5t-35.5 -8.5h-389q-24 0 -34.5 8.5t-10.5 20.5zM162 331q0 23 32 43l915 590q22 14 34 14 q18 0 30.5 -12.5t12.5 -29.5q0 -23 -31 -43l-916 -590q-22 -14 -34 -14q-18 0 -30.5 12t-12.5 30zM739 0v71q353 277 401 340q28 35 28 68q0 51 -46.5 92t-117.5 41q-61 0 -106 -29.5t-62 -79.5q-5 -13 -11 -16q-11 -8 -26 -8q-16 0 -27 10q-9 6 -9 16q0 46 67.5 104.5 t173.5 58.5q102 0 170 -59.5t68 -127.5q0 -38 -18 -68q-29 -48 -162 -160q-165 -140 -244 -197h350q0 27 7 34q11 11 30 11q18 0 30 -10q7 -7 7 -25v-66h-503z" />
<glyph unicode="&#xbe;" d="M0 696q0 11 9.5 19t24.5 8t44 -17q78 -49 171 -49q85 0 138 45.5t53 98.5q0 54 -54 99.5t-154 47.5q-25 1 -35 9t-10 20q0 11 10.5 19t32.5 8q79 0 112 13.5t52 40.5t19 56q0 44 -40.5 79.5t-111.5 35.5q-103 0 -157 -57q-13 -15 -33 -15q-16 0 -26 8t-10 18q0 9 11 21 q33 36 91 58.5t124 22.5q103 0 164.5 -52.5t61.5 -118.5q0 -44 -24 -77q-33 -45 -82 -65q63 -27 98 -74t35 -96q0 -75 -73 -138t-192 -63q-71 0 -144 26.5t-98 51.5q-7 8 -7 17zM179 331q0 23 31 43l916 590q22 14 34 14q18 0 30.5 -12.5t12.5 -29.5q0 -23 -32 -43 l-915 -590q-22 -14 -34 -14q-18 0 -30.5 12t-12.5 30zM735 179v57l279 417h124v-418h29q25 0 35.5 -8.5t10.5 -19.5q0 -7 -5 -14t-13.5 -10.5t-27.5 -3.5h-29v-123h29q25 0 35.5 -8.5t10.5 -19.5t-10.5 -19.5t-35.5 -8.5h-184q-25 0 -35 8.5t-10 19.5q0 12 10 20t35 8h81 v123h-329zM816 235h248v362h-6z" />
<glyph unicode="&#xbf;" d="M230 -38q0 94 60.5 166t282.5 166v85q0 31 12 44t31 13q18 0 30 -13t12 -44v-141q-219 -80 -299 -161q-45 -46 -45 -114q0 -111 81.5 -191t211.5 -80q66 0 124.5 15.5t142.5 55.5v68q0 31 11.5 44t30.5 13t30.5 -13t11.5 -44v-122q-156 -70 -202 -81q-78 -20 -156 -20 q-166 0 -268 100.5t-102 253.5zM471 782q0 45 31 75t73 30h84q43 0 73.5 -30.5t30.5 -73.5q0 -45 -31 -74.5t-73 -29.5h-84q-43 0 -73.5 30.5t-30.5 72.5z" />
<glyph unicode="&#xc0;" d="M0 1268l8 4h80q9 0 24 -104q72 -72 164 -72q89 0 160 88q29 83 36 84h388q29 0 68 -164q36 -8 64 -8q87 0 152 80q14 96 24 96h76q8 -1 8 -8q-120 -1182 -136 -1264h-972q-15 0 -32 236q-4 18 -112 1032zM128 1060q112 -939 112 -968h772l116 972q-72 -36 -128 -36h-52 l-8 4q16 -99 16 -184v-364q0 -73 -88 -84l-36 4v-20q0 -100 -92 -100q-17 0 -36 8q-11 -72 -72 -72h-28q-53 0 -68 56q-26 -8 -36 -8h-16q-69 0 -76 84v372q-64 -52 -112 -52q-61 0 -76 88q0 36 68 116q54 98 88 172h-4q-41 -20 -100 -20h-16q-57 0 -128 36v-4zM268 756 q0 -36 32 -36q59 0 96 76q13 92 20 92h32q8 -1 8 -8v-548q7 -16 28 -16h20q28 0 28 28v416q1 8 8 8h32q8 -1 8 -8v-464q0 -32 44 -32q36 0 36 44v456q1 8 8 8h28q8 -1 8 -8v-392q0 -40 32 -40h16q32 0 32 32v396q1 8 8 8h32q8 -1 8 -8v-284q0 -28 28 -28h16q36 0 36 64v276 q0 263 -68 432h-340q-6 -1 -64 -148q-70 -158 -172 -304v-12zM371 1553q0 18 12.5 30.5t30.5 12.5q15 0 38 -20l236 -204l22 -25q3 -5 3 -16q0 -18 -12.5 -30.5t-30.5 -12.5q-15 0 -38 20l-236 204q-25 22 -25 41z" />
<glyph unicode="&#xc1;" d="M0 1268l8 4h80q9 0 24 -104q72 -72 164 -72q89 0 160 88q29 83 36 84h388q29 0 68 -164q36 -8 64 -8q87 0 152 80q14 96 24 96h76q8 -1 8 -8q-120 -1182 -136 -1264h-972q-15 0 -32 236q-4 18 -112 1032zM128 1060q112 -939 112 -968h772l116 972q-72 -36 -128 -36h-52 l-8 4q16 -99 16 -184v-364q0 -73 -88 -84l-36 4v-20q0 -100 -92 -100q-17 0 -36 8q-11 -72 -72 -72h-28q-53 0 -68 56q-26 -8 -36 -8h-16q-69 0 -76 84v372q-64 -52 -112 -52q-61 0 -76 88q0 36 68 116q54 98 88 172h-4q-41 -20 -100 -20h-16q-57 0 -128 36v-4zM268 756 q0 -36 32 -36q59 0 96 76q13 92 20 92h32q8 -1 8 -8v-548q7 -16 28 -16h20q28 0 28 28v416q1 8 8 8h32q8 -1 8 -8v-464q0 -32 44 -32q36 0 36 44v456q1 8 8 8h28q8 -1 8 -8v-392q0 -40 32 -40h16q32 0 32 32v396q1 8 8 8h32q8 -1 8 -8v-284q0 -28 28 -28h16q36 0 36 64v276 q0 263 -68 432h-340q-6 -1 -64 -148q-70 -158 -172 -304v-12zM482 1331q0 10 4.5 18t20.5 23l236 204q23 20 39 20q17 0 29.5 -12.5t12.5 -30.5q0 -10 -4.5 -18.5t-20.5 -22.5l-237 -204q-22 -20 -38 -20q-17 0 -29.5 12.5t-12.5 30.5z" />
<glyph unicode="&#xc2;" d="M0 1268l8 4h80q9 0 24 -104q72 -72 164 -72q89 0 160 88q29 83 36 84h388q29 0 68 -164q36 -8 64 -8q87 0 152 80q14 96 24 96h76q8 -1 8 -8q-120 -1182 -136 -1264h-972q-15 0 -32 236q-4 18 -112 1032zM128 1060q112 -939 112 -968h772l116 972q-72 -36 -128 -36h-52 l-8 4q16 -99 16 -184v-364q0 -73 -88 -84l-36 4v-20q0 -100 -92 -100q-17 0 -36 8q-11 -72 -72 -72h-28q-53 0 -68 56q-26 -8 -36 -8h-16q-69 0 -76 84v372q-64 -52 -112 -52q-61 0 -76 88q0 36 68 116q54 98 88 172h-4q-41 -20 -100 -20h-16q-57 0 -128 36v-4zM255 1332 q0 21 28 42l270 206l271 -206q18 -14 23 -22.5t5 -19.5q0 -18 -12.5 -30t-30.5 -12q-13 0 -35 17l-221 169l-220 -169q-22 -17 -36 -17q-17 0 -29.5 12.5t-12.5 29.5zM268 756q0 -36 32 -36q59 0 96 76q13 92 20 92h32q8 -1 8 -8v-548q7 -16 28 -16h20q28 0 28 28v416 q1 8 8 8h32q8 -1 8 -8v-464q0 -32 44 -32q36 0 36 44v456q1 8 8 8h28q8 -1 8 -8v-392q0 -40 32 -40h16q32 0 32 32v396q1 8 8 8h32q8 -1 8 -8v-284q0 -28 28 -28h16q36 0 36 64v276q0 263 -68 432h-340q-6 -1 -64 -148q-70 -158 -172 -304v-12z" />
<glyph unicode="&#xc3;" d="M0 1268l8 4h80q9 0 24 -104q72 -72 164 -72q89 0 160 88q29 83 36 84h388q29 0 68 -164q36 -8 64 -8q87 0 152 80q14 96 24 96h76q8 -1 8 -8q-120 -1182 -136 -1264h-972q-15 0 -32 236q-4 18 -112 1032zM128 1060q112 -939 112 -968h772l116 972q-72 -36 -128 -36h-52 l-8 4q16 -99 16 -184v-364q0 -73 -88 -84l-36 4v-20q0 -100 -92 -100q-17 0 -36 8q-11 -72 -72 -72h-28q-53 0 -68 56q-26 -8 -36 -8h-16q-69 0 -76 84v372q-64 -52 -112 -52q-61 0 -76 88q0 36 68 116q54 98 88 172h-4q-41 -20 -100 -20h-16q-57 0 -128 36v-4zM204 1350 q0 26 51 66q78 59 136 59q30 0 61 -12.5t101 -60.5t102 -48q38 0 115 68q16 13 30 13q17 0 29.5 -12t12.5 -27q0 -17 -13 -32q-40 -45 -95 -74q-38 -21 -79 -21q-64 0 -173 79q-58 43 -90 43q-40 0 -101 -56q-27 -25 -46 -25q-18 0 -29.5 12t-11.5 28zM268 756q0 -36 32 -36 q59 0 96 76q13 92 20 92h32q8 -1 8 -8v-548q7 -16 28 -16h20q28 0 28 28v416q1 8 8 8h32q8 -1 8 -8v-464q0 -32 44 -32q36 0 36 44v456q1 8 8 8h28q8 -1 8 -8v-392q0 -40 32 -40h16q32 0 32 32v396q1 8 8 8h32q8 -1 8 -8v-284q0 -28 28 -28h16q36 0 36 64v276q0 263 -68 432 h-340q-6 -1 -64 -148q-70 -158 -172 -304v-12z" />
<glyph unicode="&#xc4;" d="M0 1268l8 4h80q9 0 24 -104q72 -72 164 -72q89 0 160 88q29 83 36 84h388q29 0 68 -164q36 -8 64 -8q87 0 152 80q14 96 24 96h76q8 -1 8 -8q-120 -1182 -136 -1264h-972q-15 0 -32 236q-4 18 -112 1032zM128 1060q112 -939 112 -968h772l116 972q-72 -36 -128 -36h-52 l-8 4q16 -99 16 -184v-364q0 -73 -88 -84l-36 4v-20q0 -100 -92 -100q-17 0 -36 8q-11 -72 -72 -72h-28q-53 0 -68 56q-26 -8 -36 -8h-16q-69 0 -76 84v372q-64 -52 -112 -52q-61 0 -76 88q0 36 68 116q54 98 88 172h-4q-41 -20 -100 -20h-16q-57 0 -128 36v-4zM229 1414 q0 34 24 58t57 24q34 0 58 -24t24 -58t-24 -57.5t-58 -23.5q-33 0 -57 24t-24 57zM268 756q0 -36 32 -36q59 0 96 76q13 92 20 92h32q8 -1 8 -8v-548q7 -16 28 -16h20q28 0 28 28v416q1 8 8 8h32q8 -1 8 -8v-464q0 -32 44 -32q36 0 36 44v456q1 8 8 8h28q8 -1 8 -8v-392 q0 -40 32 -40h16q32 0 32 32v396q1 8 8 8h32q8 -1 8 -8v-284q0 -28 28 -28h16q36 0 36 64v276q0 263 -68 432h-340q-6 -1 -64 -148q-70 -158 -172 -304v-12zM658 1414q0 34 23.5 58t57.5 24t58 -24t24 -58t-24 -57.5t-58 -23.5t-57.5 24t-23.5 57z" />
<glyph unicode="&#xc5;" d="M0 1268l8 4h80q9 0 24 -104q72 -72 164 -72q89 0 160 88q29 83 36 84h388q29 0 68 -164q36 -8 64 -8q87 0 152 80q14 96 24 96h76q8 -1 8 -8q-120 -1182 -136 -1264h-972q-15 0 -32 236q-4 18 -112 1032zM128 1060q112 -939 112 -968h772l116 972q-72 -36 -128 -36h-52 l-8 4q16 -99 16 -184v-364q0 -73 -88 -84l-36 4v-20q0 -100 -92 -100q-17 0 -36 8q-11 -72 -72 -72h-28q-53 0 -68 56q-26 -8 -36 -8h-16q-69 0 -76 84v372q-64 -52 -112 -52q-61 0 -76 88q0 36 68 116q54 98 88 172h-4q-41 -20 -100 -20h-16q-57 0 -128 36v-4zM268 756 q0 -36 32 -36q59 0 96 76q13 92 20 92h32q8 -1 8 -8v-548q7 -16 28 -16h20q28 0 28 28v416q1 8 8 8h32q8 -1 8 -8v-464q0 -32 44 -32q36 0 36 44v456q1 8 8 8h28q8 -1 8 -8v-392q0 -40 32 -40h16q32 0 32 32v396q1 8 8 8h32q8 -1 8 -8v-284q0 -28 28 -28h16q36 0 36 64v276 q0 263 -68 432h-340q-6 -1 -64 -148q-70 -158 -172 -304v-12zM382 1425q0 73 53 125.5t128 52.5t128 -52.5t53 -125.5t-53 -125.5t-128 -52.5t-128 52.5t-53 125.5zM442 1425q0 -48 35.5 -83t85.5 -35t85.5 34.5t35.5 83.5t-35.5 83.5t-85.5 34.5q-51 0 -86 -35t-35 -83z " />
<glyph unicode="&#xc6;" d="M18 42q0 19 13 30.5t43 11.5h77l276 1002h-131q-30 0 -43 11.5t-13 30.5t12.5 30.5t43.5 11.5h874v-316q0 -30 -12 -43t-30 -13q-19 0 -31 13t-12 43v232h-387v-436h163v58q0 31 11.5 44t30.5 13t31 -13t11 -44v-198q0 -31 -11.5 -44t-30.5 -13t-30.5 13t-11.5 44v57 h-163v-483h430v194q0 23 5 34q3 6 14.5 14t18.5 8l20 -3q16 -9 21 -18.5t5 -34.5v-278h-706q-30 0 -43 12t-13 30q0 19 13 30.5t43 11.5h108v310h-293l-85 -310h54q30 0 43 -11.5t13 -30.5q0 -18 -13 -30t-43 -12h-216q-30 0 -43 12t-13 30zM344 475h270v611h-104z" />
<glyph unicode="&#xc7;" d="M0 8v1256q1 8 8 8h1240q8 -1 8 -8v-1256q0 -8 -8 -8h-1240q-8 0 -8 8zM84 88h1088v1100h-1088v-1100zM148 640q0 242 224 400q119 76 260 76q266 0 424 -264q52 -116 52 -216q0 -249 -232 -408q-118 -68 -224 -68h-48q-232 0 -392 240q-64 116 -64 240zM244 636 q0 -235 244 -356q69 -24 124 -24h24q229 0 348 240q24 69 24 124v44q0 166 -176 296q-101 60 -204 60q-252 0 -364 -264q-16 -55 -20 -120zM360 628v8q0 73 76 100h36q68 0 88 -92v-16q-20 -92 -92 -92h-16q-92 20 -92 92zM448 -258q0 13 8.5 21.5t21.5 8.5q10 0 23 -7 q68 -38 125 -38q39 0 61 18.5t22 40.5q0 19 -17 33q-23 18 -59 18h-41v153q0 22 8.5 31t21.5 9q14 0 22 -9.5t8 -30.5v-96q56 -8 87 -38.5t31 -71.5q0 -49 -37.5 -83t-106.5 -34q-47 0 -101 18.5t-67 33.5q-10 11 -10 23zM696 624v24q20 88 88 88h24q66 0 88 -92v-4 q0 -78 -80 -104h-28q-92 22 -92 88z" />
<glyph unicode="&#xc8;" d="M0 616v32q0 296 268 504q165 116 372 116q303 0 512 -268q116 -168 116 -364v-12q0 -334 -316 -540q-150 -84 -288 -84h-52q-274 0 -480 244q-132 177 -132 372zM92 608q0 -237 224 -416q151 -104 316 -104q306 0 484 292q60 123 60 244v28q0 255 -248 440 q-142 84 -292 84h-8q-322 0 -496 -328q-40 -113 -40 -184v-56zM440 280v728q1 8 8 8h488q8 -1 8 -8v-72q0 -8 -8 -8h-396v-232h340q8 -1 8 -8v-72q0 -8 -8 -8h-340v-328q0 -8 -8 -8h-84q-8 0 -8 8zM447 1553q0 18 12.5 30.5t30.5 12.5q15 0 38 -20l236 -204l22 -25 q3 -5 3 -16q0 -18 -12.5 -30.5t-30.5 -12.5q-15 0 -38 20l-236 204q-25 22 -25 41z" />
<glyph unicode="&#xc9;" d="M0 616v32q0 296 268 504q165 116 372 116q303 0 512 -268q116 -168 116 -364v-12q0 -334 -316 -540q-150 -84 -288 -84h-52q-274 0 -480 244q-132 177 -132 372zM92 608q0 -237 224 -416q151 -104 316 -104q306 0 484 292q60 123 60 244v28q0 255 -248 440 q-142 84 -292 84h-8q-322 0 -496 -328q-40 -113 -40 -184v-56zM440 280v728q1 8 8 8h488q8 -1 8 -8v-72q0 -8 -8 -8h-396v-232h340q8 -1 8 -8v-72q0 -8 -8 -8h-340v-328q0 -8 -8 -8h-84q-8 0 -8 8zM446 1331q0 10 4.5 18t20.5 23l236 204q23 20 39 20q17 0 29.5 -12.5 t12.5 -30.5q0 -10 -4.5 -18.5t-20.5 -22.5l-237 -204q-22 -20 -38 -20q-17 0 -29.5 12.5t-12.5 30.5z" />
<glyph unicode="&#xca;" d="M0 616v32q0 296 268 504q165 116 372 116q303 0 512 -268q116 -168 116 -364v-12q0 -334 -316 -540q-150 -84 -288 -84h-52q-274 0 -480 244q-132 177 -132 372zM92 608q0 -237 224 -416q151 -104 316 -104q306 0 484 292q60 123 60 244v28q0 255 -248 440 q-142 84 -292 84h-8q-322 0 -496 -328q-40 -113 -40 -184v-56zM317 1329q0 21 28 42l270 206l271 -206q18 -14 23 -22.5t5 -19.5q0 -18 -12.5 -30t-30.5 -12q-13 0 -35 17l-221 169l-220 -169q-22 -17 -36 -17q-17 0 -29.5 12.5t-12.5 29.5zM440 280v728q1 8 8 8h488 q8 -1 8 -8v-72q0 -8 -8 -8h-396v-232h340q8 -1 8 -8v-72q0 -8 -8 -8h-340v-328q0 -8 -8 -8h-84q-8 0 -8 8z" />
<glyph unicode="&#xcb;" d="M0 616v32q0 296 268 504q165 116 372 116q303 0 512 -268q116 -168 116 -364v-12q0 -334 -316 -540q-150 -84 -288 -84h-52q-274 0 -480 244q-132 177 -132 372zM92 608q0 -237 224 -416q151 -104 316 -104q306 0 484 292q60 123 60 244v28q0 255 -248 440 q-142 84 -292 84h-8q-322 0 -496 -328q-40 -113 -40 -184v-56zM320 1414q0 34 24 58t57 24q34 0 58 -24t24 -58t-24 -57.5t-58 -23.5q-33 0 -57 24t-24 57zM440 280v728q1 8 8 8h488q8 -1 8 -8v-72q0 -8 -8 -8h-396v-232h340q8 -1 8 -8v-72q0 -8 -8 -8h-340v-328q0 -8 -8 -8 h-84q-8 0 -8 8zM749 1414q0 34 23.5 58t57.5 24t58 -24t24 -58t-24 -57.5t-58 -23.5t-57.5 24t-23.5 57z" />
<glyph unicode="&#xcc;" d="M0 156v4l300 576q-156 151 -272 272q0 5 60 60h4l252 -248q191 359 228 440h12l216 -420l236 232q5 0 64 -64l-252 -256q301 -572 308 -596h-148l88 -92v-4q0 -5 -60 -60l-160 156h-624l-160 -156q-5 0 -64 64l88 92h-116zM447 1553q0 18 12.5 30.5t30.5 12.5 q15 0 38 -20l236 -204l22 -25q3 -5 3 -16q0 -18 -12.5 -30.5t-30.5 -12.5q-15 0 -38 20l-236 204q-25 22 -25 41z" />
<glyph unicode="&#xcd;" d="M0 156v4l300 576q-156 151 -272 272q0 5 60 60h4l252 -248q191 359 228 440h12l216 -420l236 232q5 0 64 -64l-252 -256q301 -572 308 -596h-148l88 -92v-4q0 -5 -60 -60l-160 156h-624l-160 -156q-5 0 -64 64l88 92h-116zM439 1331q0 10 4.5 18t20.5 23l236 204 q23 20 39 20q17 0 29.5 -12.5t12.5 -30.5q0 -10 -4.5 -18.5t-20.5 -22.5l-237 -204q-22 -20 -38 -20q-17 0 -29.5 12.5t-12.5 30.5z" />
<glyph unicode="&#xce;" d="M0 156v4l300 576q-156 151 -272 272q0 5 60 60h4l252 -248q191 359 228 440h12l216 -420l236 232q5 0 64 -64l-252 -256q301 -572 308 -596h-148l88 -92v-4q0 -5 -60 -60l-160 156h-624l-160 -156q-5 0 -64 64l88 92h-116zM316 1329q0 21 28 42l270 206l271 -206 q18 -14 23 -22.5t5 -19.5q0 -18 -12.5 -30t-30.5 -12q-13 0 -35 17l-221 169l-220 -169q-22 -17 -36 -17q-17 0 -29.5 12.5t-12.5 29.5z" />
<glyph unicode="&#xcf;" d="M0 156v4l300 576q-156 151 -272 272q0 5 60 60h4l252 -248q191 359 228 440h12l216 -420l236 232q5 0 64 -64l-252 -256q301 -572 308 -596h-148l88 -92v-4q0 -5 -60 -60l-160 156h-624l-160 -156q-5 0 -64 64l88 92h-116zM319 1414q0 34 24 58t57 24q34 0 58 -24t24 -58 t-24 -57.5t-58 -23.5q-33 0 -57 24t-24 57zM748 1414q0 34 23.5 58t57.5 24t58 -24t24 -58t-24 -57.5t-58 -23.5t-57.5 24t-23.5 57z" />
<glyph unicode="&#xd0;" d="M-3 607q0 14 8.5 25t21.5 15q8 2 87 2h99v437h-70q-31 0 -44 11.5t-13 30.5t13 30.5t44 11.5h451q106 0 193.5 -44t133.5 -100q79 -95 120 -201q30 -77 30 -182v-116q0 -129 -57.5 -250t-190.5 -211q-99 -66 -229 -66h-451q-31 0 -44 12t-13 30q0 19 13 30.5t44 11.5h70 v480h-99q-79 0 -87 2q-13 4 -21.5 15t-8.5 26zM298 84h305q105 0 198 69t139 165.5t46 190.5v152q0 78 -24 139q-37 89 -102 169q-36 44 -106.5 80.5t-150.5 36.5h-305v-437h234q79 0 87 -2q12 -4 21 -15t9 -25q0 -15 -9 -26t-21 -15q-8 -2 -87 -2h-234v-480z" />
<glyph unicode="&#xd1;" d="M-15 1076q20 11 64 21q50 -181 70 -269q47 29 91 29q42 0 124 -94q31 -28 47 -28h10q21 0 124 97q49 25 81 25q74 0 161 -101q22 -21 43 -21q24 0 128 107q40 18 60 18q51 0 111 -53q70 272 80 294q44 -11 64 -22l-272 -1008l-6 -4h-708q-9 0 -98 352q-3 3 -174 657z M139 763q158 -617 168 -624h614l158 599q-52 58 -88 58h-3q-34 0 -124 -101q-36 -25 -67 -25q-51 0 -141 101q-30 21 -50 21h-17q-36 0 -131 -93q-40 -29 -74 -29q-56 0 -157 115q-11 7 -21 7h-10q-29 0 -57 -29zM294 1350q0 26 51 66q78 59 136 59q30 0 61 -12.5t101 -60.5 t102 -48q38 0 115 68q16 13 30 13q17 0 29.5 -12t12.5 -27q0 -17 -13 -32q-40 -45 -95 -74q-38 -21 -79 -21q-64 0 -173 79q-58 43 -90 43q-40 0 -101 -56q-27 -25 -46 -25q-18 0 -29.5 12t-11.5 28zM300 290v10q21 8 51 8q26 -87 80 -87h17q67 0 80 97q0 67 -77 83h-10 l-33 -4q0 4 -4 4q0 47 31 47q73 11 73 71v4q0 68 -77 68q-53 0 -74 -82q-45 7 -53 14q30 90 57 90q22 25 77 25h3q124 -17 124 -122q0 -49 -57 -90q46 0 77 -83v-35q0 -91 -110 -133h-51q-93 0 -124 115zM639 379v51q0 150 87 197q31 11 51 11h3q144 0 144 -237 q0 -175 -87 -216q-16 -10 -44 -10h-23q-81 0 -117 104q-14 52 -14 100zM696 372q0 -151 81 -151h10q69 0 80 137v64q0 169 -87 169q-84 0 -84 -154v-65z" />
<glyph unicode="&#xd2;" d="M0 8v1252q1 8 8 8h1240q8 -1 8 -8v-1252q0 -8 -8 -8h-1240q-8 0 -8 8zM84 84h1088v1100h-1088v-1100zM148 636q0 280 284 436q98 40 200 40q279 0 432 -280q44 -112 44 -196q0 -224 -188 -380q-130 -100 -292 -100q-291 0 -440 288q-40 104 -40 192zM244 636 q0 -246 256 -364q72 -20 120 -20h8q238 0 352 236q28 62 28 128v36q0 187 -188 312q-90 52 -192 52q-247 0 -360 -252q-16 -39 -24 -128zM444 1553q0 18 12.5 30.5t30.5 12.5q15 0 38 -20l236 -204l22 -25q3 -5 3 -16q0 -18 -12.5 -30.5t-30.5 -12.5q-15 0 -38 20l-236 204 q-25 22 -25 41zM528 624v20q0 76 104 92q47 0 88 -56q8 -28 8 -48q0 -87 -104 -100q-96 20 -96 92z" />
<glyph unicode="&#xd3;" d="M0 8v1252q1 8 8 8h1240q8 -1 8 -8v-1252q0 -8 -8 -8h-1240q-8 0 -8 8zM84 84h1088v1100h-1088v-1100zM148 636q0 280 284 436q98 40 200 40q279 0 432 -280q44 -112 44 -196q0 -224 -188 -380q-130 -100 -292 -100q-291 0 -440 288q-40 104 -40 192zM244 636 q0 -246 256 -364q72 -20 120 -20h8q238 0 352 236q28 62 28 128v36q0 187 -188 312q-90 52 -192 52q-247 0 -360 -252q-16 -39 -24 -128zM443 1331q0 10 4.5 18t20.5 23l236 204q23 20 39 20q17 0 29.5 -12.5t12.5 -30.5q0 -10 -4.5 -18.5t-20.5 -22.5l-237 -204 q-22 -20 -38 -20q-17 0 -29.5 12.5t-12.5 30.5zM528 624v20q0 76 104 92q47 0 88 -56q8 -28 8 -48q0 -87 -104 -100q-96 20 -96 92z" />
<glyph unicode="&#xd4;" d="M0 8v1252q1 8 8 8h1240q8 -1 8 -8v-1252q0 -8 -8 -8h-1240q-8 0 -8 8zM84 84h1088v1100h-1088v-1100zM148 636q0 280 284 436q98 40 200 40q279 0 432 -280q44 -112 44 -196q0 -224 -188 -380q-130 -100 -292 -100q-291 0 -440 288q-40 104 -40 192zM244 636 q0 -246 256 -364q72 -20 120 -20h8q238 0 352 236q28 62 28 128v36q0 187 -188 312q-90 52 -192 52q-247 0 -360 -252q-16 -39 -24 -128zM316 1329q0 21 28 42l270 206l271 -206q18 -14 23 -22.5t5 -19.5q0 -18 -12.5 -30t-30.5 -12q-13 0 -35 17l-221 169l-220 -169 q-22 -17 -36 -17q-17 0 -29.5 12.5t-12.5 29.5zM528 624v20q0 76 104 92q47 0 88 -56q8 -28 8 -48q0 -87 -104 -100q-96 20 -96 92z" />
<glyph unicode="&#xd5;" d="M0 8v1252q1 8 8 8h1240q8 -1 8 -8v-1252q0 -8 -8 -8h-1240q-8 0 -8 8zM84 84h1088v1100h-1088v-1100zM148 636q0 280 284 436q98 40 200 40q279 0 432 -280q44 -112 44 -196q0 -224 -188 -380q-130 -100 -292 -100q-291 0 -440 288q-40 104 -40 192zM244 636 q0 -246 256 -364q72 -20 120 -20h8q238 0 352 236q28 62 28 128v36q0 187 -188 312q-90 52 -192 52q-247 0 -360 -252q-16 -39 -24 -128zM295 1350q0 26 51 66q78 59 136 59q30 0 61 -12.5t101 -60.5t102 -48q38 0 115 68q16 13 30 13q17 0 29.5 -12t12.5 -27q0 -17 -13 -32 q-40 -45 -95 -74q-38 -21 -79 -21q-64 0 -173 79q-58 43 -90 43q-40 0 -101 -56q-27 -25 -46 -25q-18 0 -29.5 12t-11.5 28zM528 624v20q0 76 104 92q47 0 88 -56q8 -28 8 -48q0 -87 -104 -100q-96 20 -96 92z" />
<glyph unicode="&#xd6;" d="M0 8v1252q1 8 8 8h1240q8 -1 8 -8v-1252q0 -8 -8 -8h-1240q-8 0 -8 8zM84 84h1088v1100h-1088v-1100zM148 636q0 280 284 436q98 40 200 40q279 0 432 -280q44 -112 44 -196q0 -224 -188 -380q-130 -100 -292 -100q-291 0 -440 288q-40 104 -40 192zM244 636 q0 -246 256 -364q72 -20 120 -20h8q238 0 352 236q28 62 28 128v36q0 187 -188 312q-90 52 -192 52q-247 0 -360 -252q-16 -39 -24 -128zM318 1414q0 34 24 58t57 24q34 0 58 -24t24 -58t-24 -57.5t-58 -23.5q-33 0 -57 24t-24 57zM528 624v20q0 76 104 92q47 0 88 -56 q8 -28 8 -48q0 -87 -104 -100q-96 20 -96 92zM747 1414q0 34 23.5 58t57.5 24t58 -24t24 -58t-24 -57.5t-58 -23.5t-57.5 24t-23.5 57z" />
<glyph unicode="&#xd7;" d="M270 283q0 17 23 39l262 263l-263 263q-22 22 -22 39q0 18 12.5 30.5t30.5 12.5q17 0 39 -23l263 -263l261 262q23 22 40 22q18 0 30 -12.5t12 -30.5q0 -17 -22 -39l-261 -261l263 -263q22 -23 22 -40q0 -18 -12.5 -30.5t-30.5 -12.5q-9 0 -15 4q-10 4 -24 19l-263 263 l-263 -263q-15 -15 -22 -18.5t-17 -3.5q-18 0 -30.5 12.5t-12.5 30.5z" />
<glyph unicode="&#xd8;" d="M80 -41q0 14 18 36l137 174q-131 181 -131 412q0 272 154.5 444t357.5 172q183 0 322 -134l127 162q14 17 22.5 22t19.5 5q18 0 30 -12.5t12 -30.5q0 -14 -17 -36l-137 -174q133 -177 133 -417q0 -270 -155 -442.5t-357 -172.5q-184 0 -325 137l-127 -161 q-14 -18 -22.5 -22.5t-18.5 -4.5q-18 0 -30.5 12.5t-12.5 30.5zM188 582q0 -191 102 -343l594 756q-121 118 -268 118q-177 0 -302.5 -156t-125.5 -375zM344 172q121 -121 272 -121q175 0 301 155t126 376q0 196 -103 347z" />
<glyph unicode="&#xd9;" d="M0 608v44q0 298 272 504q169 112 332 112h48q285 0 492 -256q124 -171 124 -376v-4q0 -358 -340 -560q-138 -72 -300 -72q-342 0 -548 324q-80 152 -80 284zM92 608q0 -229 216 -408q147 -108 320 -108h12q302 0 476 292q60 120 60 232v28q0 278 -256 452 q-139 84 -288 84q-284 0 -464 -264q-76 -132 -76 -256v-52zM415 1553q0 18 12.5 30.5t30.5 12.5q15 0 38 -20l236 -204l22 -25q3 -5 3 -16q0 -18 -12.5 -30.5t-30.5 -12.5q-15 0 -38 20l-236 204q-25 22 -25 41zM436 280v728q1 8 8 8h264q209 0 260 -88q36 -61 36 -132v-4 q0 -174 -188 -212q-46 -8 -112 -8h-168v-292q0 -8 -8 -8h-84q-8 0 -8 8zM536 660h128q204 0 224 72q12 26 12 56v16q0 124 -172 124h-192v-268z" />
<glyph unicode="&#xda;" d="M0 608v44q0 298 272 504q169 112 332 112h48q285 0 492 -256q124 -171 124 -376v-4q0 -358 -340 -560q-138 -72 -300 -72q-342 0 -548 324q-80 152 -80 284zM92 608q0 -229 216 -408q147 -108 320 -108h12q302 0 476 292q60 120 60 232v28q0 278 -256 452 q-139 84 -288 84q-284 0 -464 -264q-76 -132 -76 -256v-52zM436 280v728q1 8 8 8h264q209 0 260 -88q36 -61 36 -132v-4q0 -174 -188 -212q-46 -8 -112 -8h-168v-292q0 -8 -8 -8h-84q-8 0 -8 8zM465 1331q0 10 4.5 18t20.5 23l236 204q23 20 39 20q17 0 29.5 -12.5 t12.5 -30.5q0 -10 -4.5 -18.5t-20.5 -22.5l-237 -204q-22 -20 -38 -20q-17 0 -29.5 12.5t-12.5 30.5zM536 660h128q204 0 224 72q12 26 12 56v16q0 124 -172 124h-192v-268z" />
<glyph unicode="&#xdb;" d="M0 608v44q0 298 272 504q169 112 332 112h48q285 0 492 -256q124 -171 124 -376v-4q0 -358 -340 -560q-138 -72 -300 -72q-342 0 -548 324q-80 152 -80 284zM92 608q0 -229 216 -408q147 -108 320 -108h12q302 0 476 292q60 120 60 232v28q0 278 -256 452 q-139 84 -288 84q-284 0 -464 -264q-76 -132 -76 -256v-52zM317 1329q0 21 28 42l270 206l271 -206q18 -14 23 -22.5t5 -19.5q0 -18 -12.5 -30t-30.5 -12q-13 0 -35 17l-221 169l-220 -169q-22 -17 -36 -17q-17 0 -29.5 12.5t-12.5 29.5zM436 280v728q1 8 8 8h264 q209 0 260 -88q36 -61 36 -132v-4q0 -174 -188 -212q-46 -8 -112 -8h-168v-292q0 -8 -8 -8h-84q-8 0 -8 8zM536 660h128q204 0 224 72q12 26 12 56v16q0 124 -172 124h-192v-268z" />
<glyph unicode="&#xdc;" d="M0 608v44q0 298 272 504q169 112 332 112h48q285 0 492 -256q124 -171 124 -376v-4q0 -358 -340 -560q-138 -72 -300 -72q-342 0 -548 324q-80 152 -80 284zM92 608q0 -229 216 -408q147 -108 320 -108h12q302 0 476 292q60 120 60 232v28q0 278 -256 452 q-139 84 -288 84q-284 0 -464 -264q-76 -132 -76 -256v-52zM320 1414q0 34 24 58t57 24q34 0 58 -24t24 -58t-24 -57.5t-58 -23.5q-33 0 -57 24t-24 57zM436 280v728q1 8 8 8h264q209 0 260 -88q36 -61 36 -132v-4q0 -174 -188 -212q-46 -8 -112 -8h-168v-292q0 -8 -8 -8 h-84q-8 0 -8 8zM536 660h128q204 0 224 72q12 26 12 56v16q0 124 -172 124h-192v-268zM749 1414q0 34 23.5 58t57.5 24t58 -24t24 -58t-24 -57.5t-58 -23.5t-57.5 24t-23.5 57z" />
<glyph unicode="&#xdd;" d="M-10 1064q9 8 62 18h6l69 -266q48 29 92 29q42 0 133 -101q26 -22 41 -22h10l24 7v4l-304 324v4q0 5 45 47h3q121 -123 311 -328q72 65 137 65q58 0 136 -80q331 357 335 357h4q5 0 44 -47v-3l-328 -350h14q19 0 119 101q33 22 55 22h21q49 0 105 -51q72 273 82 296 q43 -13 62 -22q0 -9 -232 -868q4 0 99 -105q0 -5 -48 -50l-75 76q-14 -69 -24 -69h-721q-9 0 -24 69q-66 -69 -72 -69q-9 0 -44 43v4l92 104zM147 751q124 -486 133 -486l298 317q-100 101 -106 104q-36 -29 -75 -29q-59 0 -154 108q-15 15 -27 15h-7q-32 0 -62 -29z M298 182q13 -58 20 -58h625q0 6 14 58l-331 346q-145 -157 -328 -346zM443 1322q0 10 4.5 18t20.5 23l236 204q23 20 39 20q17 0 29.5 -12.5t12.5 -30.5q0 -10 -4.5 -18.5t-20.5 -22.5l-237 -204q-22 -20 -38 -20q-17 0 -29.5 12.5t-12.5 30.5zM526 733l100 -101q4 0 85 90 q-57 58 -92 58h-11q-35 0 -82 -47zM677 578q168 -182 304 -317q0 13 123 458q-42 64 -96 64q-24 0 -123 -100q-35 -25 -61 -26h-4q-20 0 -58 15q-5 0 -85 -90v-4z" />
<glyph unicode="&#xde;" d="M179 42q0 19 13 30.5t43 11.5h113v1002h-113q-30 0 -43 11.5t-13 30.5q0 13 7.5 24t17.5 14.5t55 3.5h461q30 0 43 -11.5t13 -30.5t-13 -30.5t-43 -11.5h-288v-157h291q173 0 282.5 -102.5t109.5 -239.5q0 -80 -35.5 -145t-85.5 -102q-75 -56 -155 -82q-58 -20 -144 -20 h-263v-154h288q30 0 43 -11.5t13 -30.5q0 -18 -13 -30t-43 -12h-485q-30 0 -43 12t-13 30zM432 323h268q93 0 174.5 41t119 101t37.5 122q0 99 -85 178t-215 79h-299v-521z" />
<glyph unicode="&#xdf;" d="M89 42q0 19 13 30.5t43 11.5h113v906q0 106 84.5 185.5t210.5 79.5q127 0 215 -88.5t88 -214.5q0 -125 -120 -207q93 -39 146 -84q72 -61 110.5 -143t38.5 -185q0 -170 -83 -268t-191 -98q-92 0 -155 68.5t-63 174.5q0 22 12 34.5t30 12.5t29.5 -12t12.5 -37 q5 -78 42 -117q36 -40 93 -40q87 0 137.5 88.5t50.5 192.5q0 83 -32.5 152t-76.5 106.5t-133 78.5q-56 25 -132 25q-31 0 -43 9q-16 13 -16 34q0 17 12.5 29.5t33.5 12.5q61 0 111.5 26t76 64.5t25.5 85.5q0 87 -64 151t-155 64q-94 0 -152.5 -55.5t-58.5 -124.5v-906h32 q30 0 43 -11.5t13 -30.5q0 -18 -13 -30t-43 -12h-229q-30 0 -43 12t-13 30z" />
<glyph unicode="&#xe0;" d="M144 231q0 122 112 213t327 91q58 0 126 -7.5t147 -23.5v136q0 69 -64 120t-192 51q-98 0 -275 -57q-32 -10 -41 -10q-16 0 -27.5 12t-11.5 30q0 17 10 27q14 15 113 41q156 42 236 42q159 0 248 -78.5t89 -177.5v-556h112q31 0 44 -11.5t13 -30.5q0 -18 -13 -30t-44 -12 h-197v121q-183 -154 -391 -154q-151 0 -236 76.5t-85 187.5zM228 231q0 -76 59.5 -128t173.5 -52q109 0 202.5 43.5t192.5 138.5v185q-59 17 -125 25t-139 8q-183 0 -286 -79q-78 -59 -78 -141zM444 1285q0 18 12.5 30.5t30.5 12.5q15 0 38 -20l236 -204l22 -25q3 -5 3 -16 q0 -18 -12.5 -30.5t-30.5 -12.5q-15 0 -38 20l-236 204q-25 22 -25 41z" />
<glyph unicode="&#xe1;" d="M144 231q0 122 112 213t327 91q58 0 126 -7.5t147 -23.5v136q0 69 -64 120t-192 51q-98 0 -275 -57q-32 -10 -41 -10q-16 0 -27.5 12t-11.5 30q0 17 10 27q14 15 113 41q156 42 236 42q159 0 248 -78.5t89 -177.5v-556h112q31 0 44 -11.5t13 -30.5q0 -18 -13 -30t-44 -12 h-197v121q-183 -154 -391 -154q-151 0 -236 76.5t-85 187.5zM228 231q0 -76 59.5 -128t173.5 -52q109 0 202.5 43.5t192.5 138.5v185q-59 17 -125 25t-139 8q-183 0 -286 -79q-78 -59 -78 -141zM443 1063q0 10 4.5 18t20.5 23l236 204q23 20 39 20q17 0 29.5 -12.5 t12.5 -30.5q0 -10 -4.5 -18.5t-20.5 -22.5l-237 -204q-22 -20 -38 -20q-17 0 -29.5 12.5t-12.5 30.5z" />
<glyph unicode="&#xe2;" d="M144 231q0 122 112 213t327 91q58 0 126 -7.5t147 -23.5v136q0 69 -64 120t-192 51q-98 0 -275 -57q-32 -10 -41 -10q-16 0 -27.5 12t-11.5 30q0 17 10 27q14 15 113 41q156 42 236 42q159 0 248 -78.5t89 -177.5v-556h112q31 0 44 -11.5t13 -30.5q0 -18 -13 -30t-44 -12 h-197v121q-183 -154 -391 -154q-151 0 -236 76.5t-85 187.5zM228 231q0 -76 59.5 -128t173.5 -52q109 0 202.5 43.5t192.5 138.5v185q-59 17 -125 25t-139 8q-183 0 -286 -79q-78 -59 -78 -141zM316 1062q0 21 28 42l270 206l271 -206q18 -14 23 -22.5t5 -19.5 q0 -18 -12.5 -30t-30.5 -12q-13 0 -35 17l-221 169l-220 -169q-22 -17 -36 -17q-17 0 -29.5 12.5t-12.5 29.5z" />
<glyph unicode="&#xe3;" d="M144 231q0 122 112 213t327 91q58 0 126 -7.5t147 -23.5v136q0 69 -64 120t-192 51q-98 0 -275 -57q-32 -10 -41 -10q-16 0 -27.5 12t-11.5 30q0 17 10 27q14 15 113 41q156 42 236 42q159 0 248 -78.5t89 -177.5v-556h112q31 0 44 -11.5t13 -30.5q0 -18 -13 -30t-44 -12 h-197v121q-183 -154 -391 -154q-151 0 -236 76.5t-85 187.5zM228 231q0 -76 59.5 -128t173.5 -52q109 0 202.5 43.5t192.5 138.5v185q-59 17 -125 25t-139 8q-183 0 -286 -79q-78 -59 -78 -141zM296 1082q0 26 51 66q78 59 136 59q30 0 61 -12.5t101 -60.5t102 -48 q38 0 115 68q16 13 30 13q17 0 29.5 -12t12.5 -27q0 -17 -13 -32q-40 -45 -95 -74q-38 -21 -79 -21q-64 0 -173 79q-58 43 -90 43q-40 0 -101 -56q-27 -25 -46 -25q-18 0 -29.5 12t-11.5 28z" />
<glyph unicode="&#xe4;" d="M144 231q0 122 112 213t327 91q58 0 126 -7.5t147 -23.5v136q0 69 -64 120t-192 51q-98 0 -275 -57q-32 -10 -41 -10q-16 0 -27.5 12t-11.5 30q0 17 10 27q14 15 113 41q156 42 236 42q159 0 248 -78.5t89 -177.5v-556h112q31 0 44 -11.5t13 -30.5q0 -18 -13 -30t-44 -12 h-197v121q-183 -154 -391 -154q-151 0 -236 76.5t-85 187.5zM228 231q0 -76 59.5 -128t173.5 -52q109 0 202.5 43.5t192.5 138.5v185q-59 17 -125 25t-139 8q-183 0 -286 -79q-78 -59 -78 -141zM272 1146q0 34 24 58t57 24q34 0 58 -24t24 -58t-24 -57.5t-58 -23.5 q-33 0 -57 24t-24 57zM701 1146q0 34 23.5 58t57.5 24t58 -24t24 -58t-24 -57.5t-58 -23.5t-57.5 24t-23.5 57z" />
<glyph unicode="&#xe5;" d="M144 231q0 122 112 213t327 91q58 0 126 -7.5t147 -23.5v136q0 69 -64 120t-192 51q-98 0 -275 -57q-32 -10 -41 -10q-16 0 -27.5 12t-11.5 30q0 17 10 27q14 15 113 41q156 42 236 42q159 0 248 -78.5t89 -177.5v-556h112q31 0 44 -11.5t13 -30.5q0 -18 -13 -30t-44 -12 h-197v121q-183 -154 -391 -154q-151 0 -236 76.5t-85 187.5zM228 231q0 -76 59.5 -128t173.5 -52q109 0 202.5 43.5t192.5 138.5v185q-59 17 -125 25t-139 8q-183 0 -286 -79q-78 -59 -78 -141zM433 1186q0 73 53 125.5t128 52.5t128 -52.5t53 -125.5t-53 -125.5t-128 -52.5 t-128 52.5t-53 125.5zM493 1186q0 -48 35.5 -83t85.5 -35t85.5 34.5t35.5 83.5t-35.5 83.5t-85.5 34.5q-51 0 -86 -35t-35 -83z" />
<glyph unicode="&#xe6;" d="M16 300q0 55 29.5 95.5t115.5 80.5q125 58 234 58q45 0 90 -6.5t89 -19.5v125q0 70 -53 124t-114 54q-33 0 -86 -14.5t-103 -40.5q-26 -13 -37 -13q-16 0 -28.5 12.5t-12.5 28.5t14 31t105 48t153 33q69 0 134 -47.5t96 -130.5q55 91 105 128q65 50 136 50 q109 0 208.5 -126.5t100.5 -357.5h-534q15 -181 100 -286q61 -75 129 -75q89 0 231 116q18 15 33 15q18 0 29.5 -12t11.5 -30q0 -16 -13 -31q-48 -51 -152 -103q-79 -39 -139 -39q-61 0 -122 39.5t-108 119.5v-70q0 -30 -11.5 -43t-30.5 -13t-30.5 13t-11.5 43v45 q-71 -76 -127 -105t-119 -29q-80 0 -154 43t-116 125t-42 165zM100 293q0 -59 30.5 -119.5t84 -91.5t111.5 -31q53 0 100 30q64 40 148 148v191q-45 15 -88 22.5t-84 7.5q-141 0 -249 -72q-53 -34 -53 -85zM658 496h449q-20 156 -102 249q-58 66 -125 66q-63 0 -121 -67 q-80 -92 -101 -248z" />
<glyph unicode="&#xe7;" d="M171 425q0 203 133.5 337t336.5 134q193 0 324 -115v28q0 31 12 44t30 13q19 0 31 -13t12 -44v-190q-1 -31 -12.5 -44t-30.5 -13q-17 0 -28.5 11.5t-13.5 38.5q-6 71 -93.5 135t-235.5 64q-187 0 -284 -117t-97 -268q0 -163 107 -269t277 -106q98 0 199.5 36t183.5 116 q21 20 37 20q17 0 28.5 -11.5t11.5 -28.5q0 -43 -101 -109q-163 -107 -363 -107q-203 0 -333.5 129.5t-130.5 328.5zM442 -258q0 13 8.5 21.5t21.5 8.5q10 0 23 -7q68 -38 125 -38q39 0 61 18.5t22 40.5q0 19 -17 33q-23 18 -59 18h-41v153q0 22 8.5 31t21.5 9q14 0 22 -9.5 t8 -30.5v-96q56 -8 87 -38.5t31 -71.5q0 -49 -37.5 -83t-106.5 -34q-47 0 -101 18.5t-67 33.5q-10 11 -10 23z" />
<glyph unicode="&#xe8;" d="M128 451q0 183 135.5 314t335.5 131q206 0 339 -134.5t131 -348.5h-856q22 -163 136.5 -262.5t283.5 -99.5q94 0 197 31t168 82q19 15 33 15q16 0 28 -12.5t12 -29.5t-16 -33q-48 -50 -170.5 -93.5t-251.5 -43.5q-216 0 -360.5 141.5t-144.5 342.5zM214 498h770 q-25 139 -131.5 226t-253.5 87t-253 -86t-132 -227zM444 1286q0 18 12.5 30.5t30.5 12.5q15 0 38 -20l236 -204l22 -25q3 -5 3 -16q0 -18 -12.5 -30.5t-30.5 -12.5q-15 0 -38 20l-236 204q-25 22 -25 41z" />
<glyph unicode="&#xe9;" d="M128 451q0 183 135.5 314t335.5 131q206 0 339 -134.5t131 -348.5h-856q22 -163 136.5 -262.5t283.5 -99.5q94 0 197 31t168 82q19 15 33 15q16 0 28 -12.5t12 -29.5t-16 -33q-48 -50 -170.5 -93.5t-251.5 -43.5q-216 0 -360.5 141.5t-144.5 342.5zM214 498h770 q-25 139 -131.5 226t-253.5 87t-253 -86t-132 -227zM444 1064q0 10 4.5 18t20.5 23l236 204q23 20 39 20q17 0 29.5 -12.5t12.5 -30.5q0 -10 -4.5 -18.5t-20.5 -22.5l-237 -204q-22 -20 -38 -20q-17 0 -29.5 12.5t-12.5 30.5z" />
<glyph unicode="&#xea;" d="M128 451q0 183 135.5 314t335.5 131q206 0 339 -134.5t131 -348.5h-856q22 -163 136.5 -262.5t283.5 -99.5q94 0 197 31t168 82q19 15 33 15q16 0 28 -12.5t12 -29.5t-16 -33q-48 -50 -170.5 -93.5t-251.5 -43.5q-216 0 -360.5 141.5t-144.5 342.5zM214 498h770 q-25 139 -131.5 226t-253.5 87t-253 -86t-132 -227zM316 1062q0 21 28 42l270 206l271 -206q18 -14 23 -22.5t5 -19.5q0 -18 -12.5 -30t-30.5 -12q-13 0 -35 17l-221 169l-220 -169q-22 -17 -36 -17q-17 0 -29.5 12.5t-12.5 29.5z" />
<glyph unicode="&#xeb;" d="M128 451q0 183 135.5 314t335.5 131q206 0 339 -134.5t131 -348.5h-856q22 -163 136.5 -262.5t283.5 -99.5q94 0 197 31t168 82q19 15 33 15q16 0 28 -12.5t12 -29.5t-16 -33q-48 -50 -170.5 -93.5t-251.5 -43.5q-216 0 -360.5 141.5t-144.5 342.5zM214 498h770 q-25 139 -131.5 226t-253.5 87t-253 -86t-132 -227zM323 1146q0 34 24 58t57 24q34 0 58 -24t24 -58t-24 -57.5t-58 -23.5q-33 0 -57 24t-24 57zM752 1146q0 34 23.5 58t57.5 24t58 -24t24 -58t-24 -57.5t-58 -23.5t-57.5 24t-23.5 57z" />
<glyph unicode="&#xec;" d="M186 44q4 17 17 28.5t43 11.5h330v697h-245q-30 0 -43.5 12t-13.5 30q0 19 13 31t44 12h329v-782h330q31 0 44 -11.5t13 -30.5q0 -18 -13 -30t-44 -12h-744q-30 0 -43 12t-17 32zM368 1277q0 18 12.5 30.5t30.5 12.5q15 0 38 -20l236 -204l22 -25q3 -5 3 -16 q0 -18 -12.5 -30.5t-30.5 -12.5q-15 0 -38 20l-236 204q-25 22 -25 41z" />
<glyph unicode="&#xed;" d="M186 44q4 17 17 28.5t43 11.5h330v697h-245q-30 0 -43.5 12t-13.5 30q0 19 13 31t44 12h329v-782h330q31 0 44 -11.5t13 -30.5q0 -18 -13 -30t-44 -12h-744q-30 0 -43 12t-17 32zM358 1063q0 10 4.5 18t20.5 23l236 204q23 20 39 20q17 0 29.5 -12.5t12.5 -30.5 q0 -10 -4.5 -18.5t-20.5 -22.5l-237 -204q-22 -20 -38 -20q-17 0 -29.5 12.5t-12.5 30.5z" />
<glyph unicode="&#xee;" d="M186 44q4 17 17 28.5t43 11.5h330v697h-245q-30 0 -43.5 12t-13.5 30q0 19 13 31t44 12h329v-782h330q31 0 44 -11.5t13 -30.5q0 -18 -13 -30t-44 -12h-744q-30 0 -43 12t-17 32zM232 1062q0 21 28 42l270 206l271 -206q18 -14 23 -22.5t5 -19.5q0 -18 -12.5 -30 t-30.5 -12q-13 0 -35 17l-221 169l-220 -169q-22 -17 -36 -17q-17 0 -29.5 12.5t-12.5 29.5z" />
<glyph unicode="&#xef;" d="M186 44q4 17 17 28.5t43 11.5h330v697h-245q-30 0 -43.5 12t-13.5 30q0 19 13 31t44 12h329v-782h330q31 0 44 -11.5t13 -30.5q0 -18 -13 -30t-44 -12h-744q-30 0 -43 12t-17 32zM235 1146q0 34 24 58t57 24q34 0 58 -24t24 -58t-24 -57.5t-58 -23.5q-33 0 -57 24t-24 57 zM664 1146q0 34 23.5 58t57.5 24t58 -24t24 -58t-24 -57.5t-58 -23.5t-57.5 24t-23.5 57z" />
<glyph unicode="&#xf0;" d="M129 430q0 183 132 313t327 130q95 0 177 -34t135 -80q36 -33 75 -95q-38 150 -87.5 229t-181.5 196q-321 -112 -341 -112q-19 0 -31 11t-12 27q0 15 15 28.5t104 40.5q140 42 180 51q-67 20 -138 29q-39 5 -53 17.5t-14 28.5t14 28t41 12q130 0 254 -77l159 58 q28 9 47 9q16 0 26.5 -11t10.5 -29q0 -19 -16 -30q-27 -20 -155 -47q137 -126 205 -272t68 -355q0 -258 -131.5 -392.5t-342.5 -134.5q-200 0 -333.5 135t-133.5 326zM211 424q0 -94 52.5 -185t147.5 -141t189 -50t187 47t142 133t49 190q0 157 -108.5 263.5t-272.5 106.5 q-167 0 -276.5 -107.5t-109.5 -256.5z" />
<glyph unicode="&#xf1;" d="M108 42q0 19 13 30.5t43 11.5h95v697h-71q-30 0 -43 12t-13 31q0 18 13 30t43 12h155v-127q88 89 159 123t160 34q96 0 175 -41q56 -30 101.5 -99.5t45.5 -142.5v-529h71q30 0 43 -11.5t13 -30.5q0 -18 -13 -30t-43 -12h-225q-31 0 -44 12t-13 30q0 19 13 30.5t44 11.5 h70v515q0 89 -65 150.5t-174 61.5q-83 0 -144 -33.5t-174 -166.5v-527h95q30 0 43 -11.5t13 -30.5q0 -18 -13 -30t-43 -12h-274q-30 0 -43 12t-13 30zM296 1082q0 26 51 66q78 59 136 59q30 0 61 -12.5t101 -60.5t102 -48q38 0 115 68q16 13 30 13q17 0 29.5 -12t12.5 -27 q0 -17 -13 -32q-40 -45 -95 -74q-38 -21 -79 -21q-64 0 -173 79q-58 43 -90 43q-40 0 -101 -56q-27 -25 -46 -25q-18 0 -29.5 12t-11.5 28z" />
<glyph unicode="&#xf2;" d="M145 431q0 192 137 328.5t333 136.5q194 0 331.5 -136t137.5 -329q0 -192 -137.5 -328t-331.5 -136q-196 0 -333 136.5t-137 327.5zM229 431q0 -156 112.5 -268t272.5 -112t272.5 111.5t112.5 268.5q0 158 -112.5 269t-272.5 111t-272.5 -111.5t-112.5 -268.5zM443 1286 q0 18 12.5 30.5t30.5 12.5q15 0 38 -20l236 -204l22 -25q3 -5 3 -16q0 -18 -12.5 -30.5t-30.5 -12.5q-15 0 -38 20l-236 204q-25 22 -25 41z" />
<glyph unicode="&#xf3;" d="M145 431q0 192 137 328.5t333 136.5q194 0 331.5 -136t137.5 -329q0 -192 -137.5 -328t-331.5 -136q-196 0 -333 136.5t-137 327.5zM229 431q0 -156 112.5 -268t272.5 -112t272.5 111.5t112.5 268.5q0 158 -112.5 269t-272.5 111t-272.5 -111.5t-112.5 -268.5zM443 1064 q0 10 4.5 18t20.5 23l236 204q23 20 39 20q17 0 29.5 -12.5t12.5 -30.5q0 -10 -4.5 -18.5t-20.5 -22.5l-237 -204q-22 -20 -38 -20q-17 0 -29.5 12.5t-12.5 30.5z" />
<glyph unicode="&#xf4;" d="M145 431q0 192 137 328.5t333 136.5q194 0 331.5 -136t137.5 -329q0 -192 -137.5 -328t-331.5 -136q-196 0 -333 136.5t-137 327.5zM229 431q0 -156 112.5 -268t272.5 -112t272.5 111.5t112.5 268.5q0 158 -112.5 269t-272.5 111t-272.5 -111.5t-112.5 -268.5zM316 1062 q0 21 28 42l270 206l271 -206q18 -14 23 -22.5t5 -19.5q0 -18 -12.5 -30t-30.5 -12q-13 0 -35 17l-221 169l-220 -169q-22 -17 -36 -17q-17 0 -29.5 12.5t-12.5 29.5z" />
<glyph unicode="&#xf5;" d="M145 431q0 192 137 328.5t333 136.5q194 0 331.5 -136t137.5 -329q0 -192 -137.5 -328t-331.5 -136q-196 0 -333 136.5t-137 327.5zM229 431q0 -156 112.5 -268t272.5 -112t272.5 111.5t112.5 268.5q0 158 -112.5 269t-272.5 111t-272.5 -111.5t-112.5 -268.5zM295 1082 q0 26 51 66q78 59 136 59q30 0 61 -12.5t101 -60.5t102 -48q38 0 115 68q16 13 30 13q17 0 29.5 -12t12.5 -27q0 -17 -13 -32q-40 -45 -95 -74q-38 -21 -79 -21q-64 0 -173 79q-58 43 -90 43q-40 0 -101 -56q-27 -25 -46 -25q-18 0 -29.5 12t-11.5 28z" />
<glyph unicode="&#xf6;" d="M145 431q0 192 137 328.5t333 136.5q194 0 331.5 -136t137.5 -329q0 -192 -137.5 -328t-331.5 -136q-196 0 -333 136.5t-137 327.5zM229 431q0 -156 112.5 -268t272.5 -112t272.5 111.5t112.5 268.5q0 158 -112.5 269t-272.5 111t-272.5 -111.5t-112.5 -268.5zM319 1146 q0 34 24 58t57 24q34 0 58 -24t24 -58t-24 -57.5t-58 -23.5q-33 0 -57 24t-24 57zM748 1146q0 34 23.5 58t57.5 24t58 -24t24 -58t-24 -57.5t-58 -23.5t-57.5 24t-23.5 57z" />
<glyph unicode="&#xf7;" d="M144 585q0 14 8.5 25.5t21.5 14.5q8 2 87 2h707q79 0 87 -2q13 -3 21.5 -14.5t8.5 -25.5t-8.5 -25.5t-21.5 -14.5q-8 -2 -87 -2h-707q-79 0 -87 2q-13 3 -21.5 14.5t-8.5 25.5zM533 192q0 34 24 57.5t57 23.5q34 0 58 -23.5t24 -57.5t-24 -57.5t-58 -23.5q-33 0 -57 23.5 t-24 57.5zM533 978q0 33 24 57t58 24q33 0 57 -23.5t24 -57.5t-24 -58t-57 -24q-34 0 -58 24t-24 58z" />
<glyph unicode="&#xf8;" d="M112 -42q0 16 22 38l123 126q-123 133 -123 310q0 189 140.5 326.5t342.5 137.5q167 0 298 -99l125 128q22 22 40 22q17 0 29.5 -12t12.5 -31q0 -16 -22 -39l-122 -125q122 -132 122 -309q0 -190 -140.5 -327t-342.5 -137q-162 0 -297 99l-126 -129q-22 -23 -40 -23 t-30 12.5t-12 31.5zM219 431q0 -137 97 -248l539 553q-106 75 -238 75q-167 0 -282.5 -112.5t-115.5 -267.5zM379 127q106 -76 239 -76q167 0 282 112.5t115 267.5q0 141 -96 249z" />
<glyph unicode="&#xf9;" d="M91 824q0 18 13 30t43 12h197v-627q0 -82 52 -135t130 -53q205 0 376 188v542h-155q-30 0 -43 12t-13 31q0 18 13 30t43 12h239v-782h71q30 0 43 -11.5t13 -30.5q0 -18 -13 -30t-43 -12h-155v123q-172 -156 -372 -156q-123 0 -187 67q-83 88 -83 205v542h-113 q-30 0 -43 12t-13 31zM444 1286q0 18 12.5 30.5t30.5 12.5q15 0 38 -20l236 -204l22 -25q3 -5 3 -16q0 -18 -12.5 -30.5t-30.5 -12.5q-15 0 -38 20l-236 204q-25 22 -25 41z" />
<glyph unicode="&#xfa;" d="M91 824q0 18 13 30t43 12h197v-627q0 -82 52 -135t130 -53q205 0 376 188v542h-155q-30 0 -43 12t-13 31q0 18 13 30t43 12h239v-782h71q30 0 43 -11.5t13 -30.5q0 -18 -13 -30t-43 -12h-155v123q-172 -156 -372 -156q-123 0 -187 67q-83 88 -83 205v542h-113 q-30 0 -43 12t-13 31zM444 1064q0 10 4.5 18t20.5 23l236 204q23 20 39 20q17 0 29.5 -12.5t12.5 -30.5q0 -10 -4.5 -18.5t-20.5 -22.5l-237 -204q-22 -20 -38 -20q-17 0 -29.5 12.5t-12.5 30.5z" />
<glyph unicode="&#xfb;" d="M91 824q0 18 13 30t43 12h197v-627q0 -82 52 -135t130 -53q205 0 376 188v542h-155q-30 0 -43 12t-13 31q0 18 13 30t43 12h239v-782h71q30 0 43 -11.5t13 -30.5q0 -18 -13 -30t-43 -12h-155v123q-172 -156 -372 -156q-123 0 -187 67q-83 88 -83 205v542h-113 q-30 0 -43 12t-13 31zM317 1062q0 21 28 42l270 206l271 -206q18 -14 23 -22.5t5 -19.5q0 -18 -12.5 -30t-30.5 -12q-13 0 -35 17l-221 169l-220 -169q-22 -17 -36 -17q-17 0 -29.5 12.5t-12.5 29.5z" />
<glyph unicode="&#xfc;" d="M91 824q0 18 13 30t43 12h197v-627q0 -82 52 -135t130 -53q205 0 376 188v542h-155q-30 0 -43 12t-13 31q0 18 13 30t43 12h239v-782h71q30 0 43 -11.5t13 -30.5q0 -18 -13 -30t-43 -12h-155v123q-172 -156 -372 -156q-123 0 -187 67q-83 88 -83 205v542h-113 q-30 0 -43 12t-13 31zM283 1146q0 34 24 58t57 24q34 0 58 -24t24 -58t-24 -57.5t-58 -23.5q-33 0 -57 24t-24 57zM712 1146q0 34 23.5 58t57.5 24t58 -24t24 -58t-24 -57.5t-58 -23.5t-57.5 24t-23.5 57z" />
<glyph unicode="&#xfd;" d="M149 823q0 13 6.5 23.5t17 15t32.5 4.5h230q30 0 43 -12t13 -31q0 -18 -13 -30t-43 -12h-113l343 -689l338 689h-113q-30 0 -43 12t-13 31q0 18 13 30t43 12h229q31 0 44 -12t13 -31q0 -13 -8 -24t-18 -14.5t-56 -3.5l-532 -1083h131q30 0 43 -11.5t13 -30.5 q0 -18 -13 -30t-43 -12h-484q-30 0 -43 11.5t-13 30.5t13 30.5t43 11.5h263l148 302l-390 781h-25q-30 0 -43 12t-13 30zM583 1064q0 10 4.5 18t20.5 23l236 204q23 20 39 20q17 0 29.5 -12.5t12.5 -30.5q0 -10 -4.5 -18.5t-20.5 -22.5l-237 -204q-22 -20 -38 -20 q-17 0 -29.5 12.5t-12.5 30.5z" />
<glyph unicode="&#xfe;" d="M45 -344q0 19 13 30.5t43 11.5h113v1472h-113q-30 0 -43 12t-13 31q0 18 13 30t43 12h197v-542q75 91 161 137t203 46q124 0 229 -58t162.5 -161.5t57.5 -217.5q0 -181 -129.5 -309.5t-318.5 -128.5q-225 0 -365 183v-506h204q30 0 43 -11.5t13 -30.5q0 -18 -13 -30 t-43 -12h-401q-30 0 -43 11.5t-13 30.5zM298 459q0 -145 106 -249t259 -104q151 0 257 103.5t106 249.5q0 145 -105.5 248.5t-257.5 103.5q-153 0 -259 -104t-106 -248z" />
<glyph unicode="&#xff;" d="M149 823q0 13 6.5 23.5t17 15t32.5 4.5h230q30 0 43 -12t13 -31q0 -18 -13 -30t-43 -12h-113l343 -689l338 689h-113q-30 0 -43 12t-13 31q0 18 13 30t43 12h229q31 0 44 -12t13 -31q0 -13 -8 -24t-18 -14.5t-56 -3.5l-532 -1083h131q30 0 43 -11.5t13 -30.5 q0 -18 -13 -30t-43 -12h-484q-30 0 -43 11.5t-13 30.5t13 30.5t43 11.5h263l148 302l-390 781h-25q-30 0 -43 12t-13 30zM379 1147q0 34 24 58t57 24q34 0 58 -24t24 -58t-24 -57.5t-58 -23.5q-33 0 -57 24t-24 57zM808 1147q0 34 23.5 58t57.5 24t58 -24t24 -58t-24 -57.5 t-58 -23.5t-57.5 24t-23.5 57z" />
<glyph unicode="&#x152;" d="M17 582q0 108 28 211.5t72 165.5t126 122q62 45 125.5 67t158.5 22h644v-320q0 -30 -12 -43t-31 -13q-18 0 -30 13t-12 43v236h-388v-436h163v57q0 31 12 44t30 13q19 0 31 -13t12 -44l-1 -199q0 -30 -11.5 -43t-30.5 -13q-18 0 -30 13t-12 43v58h-163v-482h430v193 q0 30 11.5 43t30.5 13t30.5 -13t11.5 -43v-277h-669q-230 0 -378 157.5t-148 424.5zM101 581q0 -233 122.5 -365t322.5 -132h67v1002h-67q-122 0 -192 -35t-129.5 -98t-91.5 -158.5t-32 -213.5z" />
<glyph unicode="&#x153;" d="M18 439q0 208 113 347q91 111 204 111q77 0 155.5 -60t124.5 -178q103 238 268 238q110 0 208.5 -124t101.5 -360h-536q8 -115 50 -204t89.5 -123.5t94.5 -34.5q76 0 187 84q46 35 55.5 40t19.5 5q16 0 28.5 -12.5t12.5 -29.5q0 -19 -30 -44q-47 -40 -113 -76 q-92 -51 -162 -51q-76 0 -152 61t-122 186q-50 -129 -125 -188t-151 -59q-115 0 -204 112q-117 145 -117 360zM102 432q0 -178 79 -279.5t157 -101.5q79 0 157.5 101.5t78.5 279.5t-79 279.5t-157 101.5q-79 0 -157.5 -101.5t-78.5 -279.5zM658 498h449q-25 162 -102 249 q-59 66 -123 66t-122 -65q-77 -87 -102 -250z" />
<glyph unicode="&#x178;" d="M-10 1064q9 8 62 18h6l69 -266q48 29 92 29q42 0 133 -101q26 -22 41 -22h10l24 7v4l-304 324v4q0 5 45 47h3q121 -123 311 -328q72 65 137 65q58 0 136 -80q331 357 335 357h4q5 0 44 -47v-3l-328 -350h14q19 0 119 101q33 22 55 22h21q49 0 105 -51q72 273 82 296 q43 -13 62 -22q0 -9 -232 -868q4 0 99 -105q0 -5 -48 -50l-75 76q-14 -69 -24 -69h-721q-9 0 -24 69q-66 -69 -72 -69q-9 0 -44 43v4l92 104zM147 751q124 -486 133 -486l298 317q-100 101 -106 104q-36 -29 -75 -29q-59 0 -154 108q-15 15 -27 15h-7q-32 0 -62 -29z M298 182q13 -58 20 -58h625q0 6 14 58l-331 346q-145 -157 -328 -346zM320 1414q0 34 24 58t57 24q34 0 58 -24t24 -58t-24 -57.5t-58 -23.5q-33 0 -57 24t-24 57zM526 733l100 -101q4 0 85 90q-57 58 -92 58h-11q-35 0 -82 -47zM677 578q168 -182 304 -317q0 13 123 458 q-42 64 -96 64q-24 0 -123 -100q-35 -25 -61 -26h-4q-20 0 -58 15q-5 0 -85 -90v-4zM749 1414q0 34 23.5 58t57.5 24t58 -24t24 -58t-24 -57.5t-58 -23.5t-57.5 24t-23.5 57z" />
<glyph unicode="&#x2c6;" d="M316 1062q0 21 28 42l270 206l271 -206q18 -14 23 -22.5t5 -19.5q0 -18 -12.5 -30t-30.5 -12q-13 0 -35 17l-221 169l-220 -169q-22 -17 -36 -17q-17 0 -29.5 12.5t-12.5 29.5z" />
<glyph unicode="&#x2dc;" d="M296 1082q0 26 51 66q78 59 136 59q30 0 61 -12.5t101 -60.5t102 -48q38 0 115 68q16 13 30 13q17 0 29.5 -12t12.5 -27q0 -17 -13 -32q-40 -45 -95 -74q-38 -21 -79 -21q-64 0 -173 79q-58 43 -90 43q-40 0 -101 -56q-27 -25 -46 -25q-18 0 -29.5 12t-11.5 28z" />
<glyph unicode="&#x2000;" horiz-adv-x="801" />
<glyph unicode="&#x2001;" horiz-adv-x="1603" />
<glyph unicode="&#x2002;" horiz-adv-x="801" />
<glyph unicode="&#x2003;" horiz-adv-x="1603" />
<glyph unicode="&#x2004;" horiz-adv-x="534" />
<glyph unicode="&#x2005;" horiz-adv-x="400" />
<glyph unicode="&#x2006;" horiz-adv-x="267" />
<glyph unicode="&#x2007;" horiz-adv-x="267" />
<glyph unicode="&#x2008;" horiz-adv-x="200" />
<glyph unicode="&#x2009;" horiz-adv-x="320" />
<glyph unicode="&#x200a;" horiz-adv-x="89" />
<glyph unicode="&#x2010;" d="M186 519v120h857v-120h-857z" />
<glyph unicode="&#x2011;" d="M186 519v120h857v-120h-857z" />
<glyph unicode="&#x2012;" d="M186 519v120h857v-120h-857z" />
<glyph unicode="&#x2013;" d="M145 585q0 19 13 30.5t43 11.5h827q30 0 43 -11.5t13 -30.5t-13 -30.5t-43 -11.5h-827q-30 0 -43 11.5t-13 30.5z" />
<glyph unicode="&#x2014;" d="M-15 586q0 19 13 31t43 12h1146q30 0 43 -12t13 -31q0 -18 -13 -30t-43 -12h-1146q-30 0 -43 12t-13 30z" />
<glyph unicode="&#x2018;" d="M509 1255h274l145 -520q3 -12 3 -23q0 -24 -17.5 -41.5t-43.5 -17.5q-36 0 -63 50z" />
<glyph unicode="&#x2019;" d="M293 713q0 10 3 22l146 520h273l-297 -552q-27 -50 -65 -50q-25 0 -42.5 17.5t-17.5 42.5z" />
<glyph unicode="&#x201a;" d="M299 -264q0 10 3 22l146 519h273l-297 -551q-27 -51 -65 -51q-25 0 -42.5 18t-17.5 43z" />
<glyph unicode="&#x201c;" d="M179 1255h218l171 -431q9 -23 9 -35q0 -21 -15 -36t-37 -15q-28 0 -53 40zM611 1255h218l171 -431q9 -23 9 -35q0 -21 -14.5 -36t-36.5 -15q-29 0 -54 40z" />
<glyph unicode="&#x201d;" d="M219 788q0 13 9 36l172 431h217l-293 -477q-24 -40 -54 -40q-21 0 -36 15t-15 35zM651 788q0 13 10 36l171 431h217l-292 -477q-25 -40 -54 -40q-22 0 -37 15t-15 35z" />
<glyph unicode="&#x201e;" d="M224 -210q0 13 9 36l172 430h217l-293 -476q-24 -40 -54 -40q-21 0 -36 15t-15 35zM656 -210q0 13 10 36l171 430h217l-292 -476q-25 -40 -54 -40q-22 0 -37 15t-15 35z" />
<glyph unicode="&#x2022;" d="M367 637q0 102 72.5 174.5t174.5 72.5q103 0 175.5 -72.5t72.5 -174.5q0 -103 -73 -175.5t-175 -72.5t-174.5 72.5t-72.5 175.5z" />
<glyph unicode="&#x2026;" d="M101 73q0 42 30 72t73 30q42 0 72 -30t30 -72q0 -43 -30 -73t-72 -30q-43 0 -73 30t-30 73zM511 73q0 42 30 72t72 30q43 0 73 -30t30 -72q0 -43 -30 -73t-73 -30q-42 0 -72 30t-30 73zM923 73q0 42 29.5 72t72.5 30t73 -30t30 -72q0 -43 -30 -73t-73 -30q-42 0 -72 30 t-30 73z" />
<glyph unicode="&#x202f;" horiz-adv-x="320" />
<glyph unicode="&#x2039;" d="M107 434l448 410q26 24 44 24t30 -12t12 -31q0 -16 -23 -41l-313 -350l313 -349q23 -25 23 -42q0 -18 -12 -30t-30 -12t-44 23z" />
<glyph unicode="&#x203a;" d="M596 43q0 17 22 42l313 349l-313 350q-22 25 -22 42q0 18 12 30t30 12t43 -24l449 -410l-449 -410q-25 -23 -43 -23t-30 12t-12 30z" />
<glyph unicode="&#x205f;" horiz-adv-x="400" />
<glyph unicode="&#x20ac;" d="M7 518q0 30 40 30h80v90h-80q-40 0 -40 30t40 30h84q10 209 154 354t344 145q208 0 358 -142v59q0 56 42 56t42 -56v-233q0 -57 -42 -57q-39 0 -42 51q-6 94 -115 166t-240 72q-111 0 -198.5 -52t-147.5 -145t-71 -218h583q42 0 42 -30t-42 -30h-586v-90h557q42 0 42 -30 t-42 -30h-554q8 -177 139.5 -307t311.5 -130q201 0 359 189q18 21 38 21q40 0 40 -39q0 -17 -34.5 -60.5t-99.5 -93.5t-141 -75.5t-160 -25.5q-148 0 -267 69t-194 185.5t-77 266.5h-83q-40 0 -40 30z" />
<glyph unicode="&#x2122;" d="M4 962v208h520v-208q0 -41 -32 -41q-33 0 -33 41v143h-162v-432h93q41 0 41 -33q0 -32 -41 -32h-252q-41 0 -41 32q0 33 41 33h94v432h-163v-143q0 -41 -32 -41q-33 0 -33 41zM535 640q0 33 42 33h36v497h107l160 -312l160 312h107v-497h36q42 0 42 -33q0 -32 -42 -32 h-161q-42 0 -42 32q0 33 42 33h58v430l-166 -327h-68l-166 325v-428h58q42 0 42 -33q0 -32 -42 -32h-161q-42 0 -42 32z" />
<glyph unicode="&#xe000;" horiz-adv-x="865" d="M0 0v865h865v-865h-865z" />
<glyph unicode="&#xfb01;" d="M14 42q0 19 13 30.5t43 11.5h173v697h-161q-30 0 -43 12t-13 31q0 18 13 30t43 12h161v124q0 117 67.5 191t154.5 74q68 0 147 -28q42 -15 42 -46q0 -18 -11 -29.5t-27 -11.5q-7 0 -22 5q-81 25 -127 25q-57 0 -92 -41q-47 -56 -47 -139v-124h149q30 0 43 -12t13 -31 q0 -18 -13 -30t-43 -12h-149v-697h149q30 0 43 -11.5t13 -30.5q0 -18 -13 -30t-43 -12h-407q-30 0 -43 12t-13 30zM695 42q0 19 12.5 30.5t43.5 11.5h161v697h-119q-30 0 -43 12t-13 31q0 18 13 30t43 12h203v-782h155q31 0 44 -11.5t13 -30.5q0 -18 -13 -30t-44 -12h-400 q-30 0 -43 12t-13 30zM871 1080v217h124v-217h-124z" />
<glyph unicode="&#xfb02;" d="M19 42q0 19 13 30.5t43 11.5h173v697h-161q-30 0 -43 12t-13 31q0 18 13 30t43 12h161v124q0 117 67.5 191t154.5 74q68 0 147 -28q42 -15 42 -46q0 -18 -11 -29.5t-27 -11.5q-7 0 -22 5q-81 25 -127 25q-57 0 -92 -41q-47 -56 -47 -139v-124h149q30 0 43 -12t13 -31 q0 -18 -13 -30t-43 -12h-149v-697h149q30 0 43 -11.5t13 -30.5q0 -18 -13 -30t-43 -12h-407q-30 0 -43 12t-13 30zM699 42q0 19 12.5 30.5t43.5 11.5h161v1086h-119q-30 0 -43 12t-13 31q0 18 13 30t43 12h203v-1171h161q31 0 44 -11.5t13 -30.5q0 -18 -13 -30t-44 -12h-406 q-30 0 -43 12t-13 30z" />
</font>
</defs>
</svg>
